<?xml version="1.0" encoding="UTF-8" standalone="no"?>
<svg
   xmlns:dc="http://purl.org/dc/elements/1.1/"
   xmlns:cc="http://creativecommons.org/ns#"
   xmlns:rdf="http://www.w3.org/1999/02/22-rdf-syntax-ns#"
   xmlns:svg="http://www.w3.org/2000/svg"
   xmlns="http://www.w3.org/2000/svg"
   xmlns:sodipodi="http://sodipodi.sourceforge.net/DTD/sodipodi-0.dtd"
   xmlns:inkscape="http://www.inkscape.org/namespaces/inkscape"
   data-name="Layer 1"
   id="Layer_1"
   viewBox="0 0 240.95 194.46001"
   version="1.1"
   sodipodi:docname="iconfinder_choose.svg"
   width="111"
   height="90"
   inkscape:version="0.92.4 (5da689c313, 2019-01-14)">
  <metadata
     id="metadata134">
    <rdf:RDF>
      <cc:Work
         rdf:about="">
        <dc:format>image/svg+xml</dc:format>
        <dc:type
           rdf:resource="http://purl.org/dc/dcmitype/StillImage" />
        <dc:title></dc:title>
      </cc:Work>
    </rdf:RDF>
  </metadata>
  <sodipodi:namedview
     pagecolor="#ffffff"
     bordercolor="#666666"
     borderopacity="1"
     objecttolerance="10"
     gridtolerance="10"
     guidetolerance="10"
     inkscape:pageopacity="0"
     inkscape:pageshadow="2"
     inkscape:window-width="1366"
     inkscape:window-height="706"
     id="namedview132"
     showgrid="false"
     fit-margin-top="0"
     fit-margin-left="0"
     fit-margin-right="0"
     fit-margin-bottom="0"
     inkscape:zoom="2.0976562"
     inkscape:cx="120.5"
     inkscape:cy="93.83"
     inkscape:window-x="-8"
     inkscape:window-y="-8"
     inkscape:window-maximized="1"
     inkscape:current-layer="Layer_1" />
  <defs
     id="defs75">
    <style
       id="style73">.cls-1{fill:#eb5639;}.cls-2{fill:#40bdff;}.cls-3{fill:#2197f7;}.cls-4{fill:#d84936;}.cls-5{fill:#263238;}.cls-6{fill:#fd0;}</style>
  </defs>
  <path
     class="cls-1"
     d="m 214.61,96.03 h 2.79 a 13.17,13.17 0 1 0 -2.85,0 z"
     id="path79"
     inkscape:connector-curvature="0"
     style="fill:#eb5639" />
  <path
     class="cls-2"
     d="m 130.15,100.01 h -11.3 A 31.69,31.69 0 0 0 87.2,131.63 v 9.29 h 74.6 v -9.29 a 31.69,31.69 0 0 0 -31.65,-31.62 z"
     id="path81"
     inkscape:connector-curvature="0"
     style="fill:#40bdff" />
  <path
     class="cls-1"
     d="M 36.83,100.03 H 29.21 A 20.73,20.73 0 0 0 8.5,120.74 v 5.62 h 49 v -5.62 A 20.73,20.73 0 0 0 36.83,100.03 Z"
     id="path83"
     inkscape:connector-curvature="0"
     style="fill:#eb5639" />
  <path
     class="cls-1"
     d="M 19.86,82.94 A 13.14,13.14 0 0 0 31.6,96.02 h 2.85 A 13.17,13.17 0 1 0 19.86,82.93 Z"
     id="path85"
     inkscape:connector-curvature="0"
     style="fill:#eb5639" />
  <path
     class="cls-1"
     d="m 219.79,100.03 h -7.62 a 20.73,20.73 0 0 0 -20.67,20.71 v 5.62 h 49 v -5.62 a 20.73,20.73 0 0 0 -20.71,-20.71 z"
     id="path87"
     inkscape:connector-curvature="0"
     style="fill:#eb5639" />
  <path
     class="cls-2"
     d="m 104.02,75.63 a 20.43,20.43 0 0 0 18.36,20.36 h 4.29 A 20.47,20.47 0 1 0 104.02,75.63 Z"
     id="path89"
     inkscape:connector-curvature="0"
     style="fill:#40bdff" />
  <path
     class="cls-1"
     d="m 214.61,96.03 h 2.79 a 13.17,13.17 0 1 0 -2.85,0 z"
     id="path91"
     inkscape:connector-curvature="0"
     style="fill:#eb5639" />
  <path
     class="cls-1"
     d="m 219.79,100.03 h -7.62 a 20.73,20.73 0 0 0 -20.67,20.71 v 5.62 h 49 v -5.62 a 20.73,20.73 0 0 0 -20.71,-20.71 z"
     id="path93"
     inkscape:connector-curvature="0"
     style="fill:#eb5639" />
  <path
     class="cls-3"
     d="m 130.15,100.01 h -9 a 31.69,31.69 0 0 1 31.65,31.62 v 9.29 h 9 v -9.29 a 31.69,31.69 0 0 0 -31.65,-31.62 z"
     id="path95"
     inkscape:connector-curvature="0"
     style="fill:#2197f7" />
  <path
     class="cls-4"
     d="m 36.83,100.03 h -7.62 c -0.23,0 -0.46,0 -0.69,0 a 20.72,20.72 0 0 1 20,20.68 v 5.62 h 9 v -5.62 A 20.73,20.73 0 0 0 36.83,100.03 Z"
     id="path97"
     inkscape:connector-curvature="0"
     style="fill:#d84936" />
  <path
     class="cls-4"
     d="m 33.02,69.77 a 13.08,13.08 0 0 0 -4.5,0.81 13.15,13.15 0 0 1 0,24.72 13.19,13.19 0 0 0 3.08,0.72 h 2.85 A 13.16,13.16 0 0 0 33.03,69.77 Z"
     id="path99"
     inkscape:connector-curvature="0"
     style="fill:#d84936" />
  <path
     class="cls-4"
     d="m 219.79,100.03 h -7.62 c -0.23,0 -0.46,0 -0.69,0 a 20.72,20.72 0 0 1 20,20.68 v 5.62 h 9 v -5.62 a 20.73,20.73 0 0 0 -20.69,-20.68 z"
     id="path101"
     inkscape:connector-curvature="0"
     style="fill:#d84936" />
  <path
     class="cls-4"
     d="m 215.98,69.77 a 13.08,13.08 0 0 0 -4.5,0.81 13.15,13.15 0 0 1 0,24.72 13.19,13.19 0 0 0 3.08,0.72 h 2.85 a 13.16,13.16 0 0 0 -1.42,-26.25 z"
     id="path103"
     inkscape:connector-curvature="0"
     style="fill:#d84936" />
  <path
     class="cls-3"
     d="m 124.5,55.17 a 20.42,20.42 0 0 0 -4.5,0.51 20.46,20.46 0 0 1 0,39.92 20.84,20.84 0 0 0 2.37,0.4 h 4.29 A 20.47,20.47 0 0 0 124.5,55.17 Z"
     id="path105"
     inkscape:connector-curvature="0"
     style="fill:#2197f7" />
  <path
     class="cls-5"
     d="m 145.5,75.63 a 25,25 0 1 0 -38.78,20.8 36.21,36.21 0 0 0 -28.02,35.2 v 11.29 a 2.5,2.5 0 0 0 2.5,2.5 h 78.6 a 2.5,2.5 0 0 0 2.5,-2.5 v -11.29 a 36.21,36.21 0 0 0 -28,-35.22 25,25 0 0 0 11.2,-20.78 z m 11.83,56 v 8.79 H 83.7 v -8.79 a 31.19,31.19 0 0 1 31.16,-31.16 h 11.29 a 31.19,31.19 0 0 1 31.15,31.16 z M 122.64,95.47 h -4.23 a 20,20 0 1 1 4.23,0 z"
     id="path107"
     inkscape:connector-curvature="0"
     style="fill:#263238" />
  <path
     class="cls-5"
     d="m 40.18,96.63 a 17.67,17.67 0 1 0 -22.31,0 A 25.25,25.25 0 0 0 0,120.74 v 7.62 a 2.5,2.5 0 0 0 2.5,2.5 h 53 a 2.5,2.5 0 0 0 2.5,-2.5 v -7.62 A 25.25,25.25 0 0 0 40.18,96.63 Z M 16.36,82.94 a 12.67,12.67 0 1 1 14,12.59 H 27.65 A 12.68,12.68 0 0 1 16.36,82.94 Z m 36.69,42.92 h -48 v -5.12 a 20.23,20.23 0 0 1 20.16,-20.21 h 7.62 a 20.23,20.23 0 0 1 20.21,20.21 z"
     id="path109"
     inkscape:connector-curvature="0"
     style="fill:#263238" />
  <path
     class="cls-5"
     d="m 223.13,96.63 a 17.67,17.67 0 1 0 -22.31,0 25.25,25.25 0 0 0 -17.87,24.12 v 7.62 a 2.5,2.5 0 0 0 2.5,2.5 h 53 a 2.5,2.5 0 0 0 2.5,-2.5 v -7.62 A 25.25,25.25 0 0 0 223.13,96.63 Z M 199.31,82.95 a 12.67,12.67 0 1 1 14,12.59 h -2.74 A 12.68,12.68 0 0 1 199.31,82.94 Z M 236,125.87 h -48 v -5.12 a 20.23,20.23 0 0 1 20.21,-20.21 h 7.62 a 20.23,20.23 0 0 1 20.21,20.21 z"
     id="path111"
     inkscape:connector-curvature="0"
     style="fill:#263238" />
  <path
     class="cls-5"
     d="M 96.5,35.07 A 2.5,2.5 0 0 0 94,32.57 H 64.1 a 2.5,2.5 0 0 0 -2.5,2.5 v 29.91 a 2.5,2.5 0 0 0 5,0 V 37.57 h 27.41 a 2.5,2.5 0 0 0 2.49,-2.5 z"
     id="path113"
     inkscape:connector-curvature="0"
     style="fill:#263238" />
  <path
     class="cls-5"
     d="m 176.9,32.57 h -29.91 a 2.5,2.5 0 0 0 0,5 h 27.41 v 27.41 a 2.5,2.5 0 0 0 5,0 V 35.07 a 2.5,2.5 0 0 0 -2.5,-2.5 z"
     id="path115"
     inkscape:connector-curvature="0"
     style="fill:#263238" />
  <path
     class="cls-5"
     d="M 94.01,158.56 H 66.6 v -27.42 a 2.5,2.5 0 0 0 -5,0 v 29.91 a 2.5,2.5 0 0 0 2.5,2.5 h 29.91 a 2.5,2.5 0 1 0 0,-5 z"
     id="path117"
     inkscape:connector-curvature="0"
     style="fill:#263238" />
  <path
     class="cls-5"
     d="m 176.9,128.63 a 2.5,2.5 0 0 0 -2.5,2.5 v 27.41 h -27.41 a 2.5,2.5 0 0 0 0,5 h 29.91 a 2.5,2.5 0 0 0 2.5,-2.5 v -29.9 a 2.5,2.5 0 0 0 -2.5,-2.51 z"
     id="path119"
     inkscape:connector-curvature="0"
     style="fill:#263238" />
  <path
     class="cls-2"
     d="m 69.24,4.82 v 4 h -4 a 1,1 0 0 0 0,2 h 4 v 4 a 1,1 0 1 0 2,0 v -4 h 4 a 1,1 0 0 0 0,-2 h -4 v -4 a 1,1 0 0 0 -2,0 z"
     id="path121"
     inkscape:connector-curvature="0"
     style="fill:#40bdff" />
  <path
     class="cls-6"
     d="m 12.63,15.63 v 4 h -4 a 1,1 0 1 0 0,2 h 4 v 4 a 1,1 0 1 0 2,0 v -4 h 4 a 1,1 0 0 0 0,-2 h -4 v -4 a 1,1 0 0 0 -2,0 z"
     id="path123"
     inkscape:connector-curvature="0"
     style="fill:#ffdd00" />
  <path
     class="cls-2"
     d="m 224.03,188.46 a 6,6 0 1 1 -6,-6 6,6 0 0 1 6,6 z m -10,0 a 4,4 0 1 0 4,-4 4,4 0 0 0 -4,4 z"
     id="path125"
     inkscape:connector-curvature="0"
     style="fill:#40bdff" />
  <path
     class="cls-6"
     d="m 152.15,6 a 6,6 0 1 1 -6,-6 6,6 0 0 1 6,6 z m -10,0 a 4,4 0 1 0 4,-4 4,4 0 0 0 -4,4 z"
     id="path127"
     inkscape:connector-curvature="0"
     style="fill:#ffdd00" />
  <path
     class="cls-2"
     d="m 49.17,180.09 h -2.59 l 1.83,-1.83 A 1,1 0 0 0 47,176.85 l -1.83,1.78 v -2.59 a 1,1 0 0 0 -2,0 v 2.59 l -1.83,-1.83 a 1,1 0 0 0 -1.41,1.41 l 1.83,1.83 h -2.59 a 1,1 0 0 0 0,2 h 2.59 l -1.83,1.83 a 1,1 0 0 0 1.41,1.41 l 1.83,-1.83 v 2.59 a 1,1 0 0 0 2,0 v -2.59 l 1.83,1.83 a 1,1 0 0 0 1.41,-1.41 l -1.83,-1.83 h 2.59 a 1,1 0 1 0 0,-2 z"
     id="path129"
     inkscape:connector-curvature="0"
     style="fill:#40bdff" />
</svg>
