<?xml version="1.0" encoding="UTF-8" standalone="no"?>
<svg
   xmlns:dc="http://purl.org/dc/elements/1.1/"
   xmlns:cc="http://creativecommons.org/ns#"
   xmlns:rdf="http://www.w3.org/1999/02/22-rdf-syntax-ns#"
   xmlns:svg="http://www.w3.org/2000/svg"
   xmlns="http://www.w3.org/2000/svg"
   xmlns:sodipodi="http://sodipodi.sourceforge.net/DTD/sodipodi-0.dtd"
   xmlns:inkscape="http://www.inkscape.org/namespaces/inkscape"
   data-name="Layer 1"
   id="Layer_1"
   viewBox="0 0 226 241"
   version="1.1"
   sodipodi:docname="iconfinder_rating.svg"
   width="226"
   height="241"
   inkscape:version="0.92.4 (5da689c313, 2019-01-14)">
  <metadata
     id="metadata370">
    <rdf:RDF>
      <cc:Work
         rdf:about="">
        <dc:format>image/svg+xml</dc:format>
        <dc:type
           rdf:resource="http://purl.org/dc/dcmitype/StillImage" />
        <dc:title></dc:title>
      </cc:Work>
    </rdf:RDF>
  </metadata>
  <sodipodi:namedview
     pagecolor="#ffffff"
     bordercolor="#666666"
     borderopacity="1"
     objecttolerance="10"
     gridtolerance="10"
     guidetolerance="10"
     inkscape:pageopacity="0"
     inkscape:pageshadow="2"
     inkscape:window-width="1366"
     inkscape:window-height="706"
     id="namedview368"
     showgrid="false"
     fit-margin-top="0"
     fit-margin-left="0"
     fit-margin-right="0"
     fit-margin-bottom="0"
     inkscape:zoom="0.921875"
     inkscape:cx="114"
     inkscape:cy="120.5"
     inkscape:window-x="-8"
     inkscape:window-y="-8"
     inkscape:window-maximized="1"
     inkscape:current-layer="Layer_1" />
  <defs
     id="defs305">
    <style
       id="style303">.cls-1{fill:#effafe;}.cls-2{fill:#fd0;}.cls-3{fill:#efc803;}.cls-4{fill:#e4ebed;}.cls-5{fill:#40bdff;}.cls-6{fill:#2197f7;}.cls-7{fill:#263238;}</style>
  </defs>
  <path
     class="cls-1"
     d="m 74.14,205.19 v 10 h 79.71 v -10 A 33.88,33.88 0 0 0 120,171.35 h -12 a 33.88,33.88 0 0 0 -33.86,33.84 z"
     id="path309"
     inkscape:connector-curvature="0"
     style="fill:#effafe" />
  <path
     class="cls-2"
     d="m 59.91,102.31 a 8,8 0 0 0 -8,8 V 228.5 a 8,8 0 0 0 8,8 h 113.18 a 8,8 0 0 0 8,-8 V 110.31 a 8,8 0 0 0 -8,-8 z m 40.08,65 a 25.94,25.94 0 1 1 28,0 l -1,0.65 1.17,0.26 a 38.08,38.08 0 0 1 29.68,36.95 v 12 a 2,2 0 0 1 -2,2 h -83.7 a 2,2 0 0 1 -2,-2 v -12 a 38.08,38.08 0 0 1 29.68,-36.95 l 1.17,-0.26 z"
     id="path311"
     inkscape:connector-curvature="0"
     style="fill:#ffdd00" />
  <path
     class="cls-3"
     d="m 173.09,102.31 h -5 a 8,8 0 0 1 8,8 V 228.5 a 8,8 0 0 1 -8,8 h 5 a 8,8 0 0 0 8,-8 V 110.31 a 8,8 0 0 0 -8,-8 z"
     id="path313"
     inkscape:connector-curvature="0"
     style="fill:#efc803" />
  <path
     class="cls-2"
     d="m 37.78,26.580004 -2.25,-4.55 -2.25,4.55 a 2,2 0 0 1 -1.51,1.09 l -5,0.73 3.64,3.55 a 2,2 0 0 1 0.59,1.77 l -0.86,5 4.5,-2.36 a 2,2 0 0 1 1.86,0 l 4.5,2.36 -0.86,-5 a 2,2 0 0 1 0.57,-1.77 l 3.64,-3.55 -5,-0.73 a 2,2 0 0 1 -1.57,-1.09 z"
     id="path315"
     inkscape:connector-curvature="0"
     style="fill:#ffdd00" />
  <path
     class="cls-1"
     d="m 116.29,167.35 v 0 a 21.95,21.95 0 1 0 -4.58,0 z"
     id="path317"
     inkscape:connector-curvature="0"
     style="fill:#effafe" />
  <path
     class="cls-4"
     d="m 120,171.35 h -5 a 33.88,33.88 0 0 1 33.84,33.84 v 10 h 5 v -10 A 33.88,33.88 0 0 0 120,171.35 Z"
     id="path319"
     inkscape:connector-curvature="0"
     style="fill:#e4ebed" />
  <path
     class="cls-4"
     d="m 114,123.6 a 22,22 0 0 0 -2.5,0.15 21.93,21.93 0 0 1 0,43.57 h 0.22 4.58 A 21.93,21.93 0 0 0 114,123.6 Z"
     id="path321"
     inkscape:connector-curvature="0"
     style="fill:#e4ebed" />
  <path
     class="cls-1"
     d="m 193.4,36.360004 4.5,2.36 -0.86,-5 a 2,2 0 0 1 0.57,-1.77 l 3.64,-3.55 -5,-0.73 a 2,2 0 0 1 -1.51,-1.09 l -2.25,-4.55 -2.25,4.55 a 2,2 0 0 1 -1.51,1.09 l -5,0.73 3.64,3.55 a 2,2 0 0 1 0.57,1.77 l -0.86,5 4.5,-2.36 a 2,2 0 0 1 1.82,0 z"
     id="path323"
     inkscape:connector-curvature="0"
     style="fill:#effafe" />
  <path
     class="cls-5"
     d="M 193.58,55.380004 H 211 a 8,8 0 0 0 8,-8 v -34.88 a 8,8 0 0 0 -8,-8 H 22 a 8,8 0 0 0 -8,8 v 34.88 a 8,8 0 0 0 8,8 h 130 a 2,2 0 0 1 2,2 v 24.12 l 38.52,-25.83 a 2,2 0 0 1 1.06,-0.29 z m -39,-26.95 -5.79,5.64 1.37,8 a 2,2 0 0 1 -2.9,2.11 l -7.15,-3.76 -7.11,3.73 a 2,2 0 0 1 -2.9,-2.11 l 1.37,-8 -5.79,-5.64 a 2,2 0 0 1 1.11,-3.41 l 8,-1.16 3.58,-7.25 a 2,2 0 0 1 3.59,0 l 3.58,7.25 8,1.16 a 2,2 0 0 1 1.09,3.45 z m 27.78,13.6 1.37,-8 -5.73,-5.59 a 2,2 0 0 1 1.11,-3.41 l 8,-1.16 3.58,-7.25 a 2,2 0 0 1 3.59,0 l 3.58,7.25 8,1.16 a 2,2 0 0 1 1.11,3.41 l -5.79,5.64 1.37,8 a 2,2 0 0 1 -2.9,2.11 l -7.15,-3.76 -7.15,3.76 a 2,2 0 0 1 -2.93,-2.15 z m -80.1,-13.6 -5.79,5.64 1.37,8 a 2,2 0 0 1 -2.9,2.11 l -7.15,-3.76 -7.15,3.76 a 2,2 0 0 1 -2.9,-2.11 l 1.37,-8 -5.79,-5.64 a 2,2 0 0 1 1.11,-3.41 l 8,-1.16 3.57,-7.24 a 2,2 0 0 1 3.59,0 l 3.58,7.25 8,1.16 a 2,2 0 0 1 1.15,3.41 z m -52.26,0.01 -5.79,5.64 1.37,8 a 2,2 0 0 1 -2.9,2.11 l -7.15,-3.76 -7.15,3.76 a 2,2 0 0 1 -2.9,-2.11 l 1.37,-8 -5.79,-5.64 a 2,2 0 0 1 1.11,-3.41 l 8,-1.16 3.58,-7.25 a 2,2 0 0 1 3.59,0 l 3.58,7.25 8,1.16 a 2,2 0 0 1 1.08,3.41 z"
     id="path325"
     inkscape:connector-curvature="0"
     style="fill:#40bdff" />
  <path
     class="cls-6"
     d="m 211,4.500004 h -5 a 8,8 0 0 1 8,8 v 34.88 a 8,8 0 0 1 -8,8 h 5 a 8,8 0 0 0 8,-8 v -34.88 a 8,8 0 0 0 -8,-8 z"
     id="path327"
     inkscape:connector-curvature="0"
     style="fill:#2197f7" />
  <path
     class="cls-2"
     d="m 90.09,26.580004 -2.25,-4.55 -2.24,4.55 a 2,2 0 0 1 -1.51,1.09 l -5,0.73 3.64,3.55 a 2,2 0 0 1 0.57,1.77 l -0.86,5 4.5,-2.36 a 2,2 0 0 1 1.86,0 l 4.5,2.36 -0.86,-5 a 2,2 0 0 1 0.57,-1.77 l 3.64,-3.55 -5,-0.73 a 2,2 0 0 1 -1.56,-1.09 z"
     id="path329"
     inkscape:connector-curvature="0"
     style="fill:#ffdd00" />
  <path
     class="cls-2"
     d="m 142.4,26.580004 -2.25,-4.55 -2.25,4.55 a 2,2 0 0 1 -1.51,1.09 l -5,0.73 3.61,3.55 a 2,2 0 0 1 0.57,1.77 l -0.86,5 4.5,-2.36 a 2,2 0 0 1 1.86,0 l 4.5,2.36 -0.86,-5 a 2,2 0 0 1 0.57,-1.77 l 3.64,-3.55 -5,-0.73 a 2,2 0 0 1 -1.52,-1.09 z"
     id="path331"
     inkscape:connector-curvature="0"
     style="fill:#ffdd00" />
  <path
     class="cls-7"
     d="m 128.29,167.75 a 26.44,26.44 0 1 0 -28.58,0 38.4,38.4 0 0 0 -30.07,37.43 v 12 a 2.5,2.5 0 0 0 2.5,2.5 h 83.71 a 2.5,2.5 0 0 0 2.5,-2.5 v -12 A 38.4,38.4 0 0 0 128.29,167.75 Z M 92.56,145.5 a 21.44,21.44 0 1 1 23.7,21.31 h -4.52 A 21.46,21.46 0 0 1 92.56,145.5 Z m 60.79,69.19 H 74.64 v -9.53 A 33.38,33.38 0 0 1 108,171.85 h 12 a 33.38,33.38 0 0 1 33.34,33.34 z"
     id="path333"
     inkscape:connector-curvature="0"
     style="fill:#263238" />
  <path
     class="cls-7"
     d="M 54.91,97.810004 A 12.51,12.51 0 0 0 42.41,110.31 V 228.5 a 12.51,12.51 0 0 0 12.5,12.5 h 118.18 a 12.51,12.51 0 0 0 12.5,-12.5 V 110.31 A 12.51,12.51 0 0 0 173.09,97.810004 Z M 180.6,110.31 V 228.5 a 7.51,7.51 0 0 1 -7.5,7.5 H 54.91 a 7.51,7.51 0 0 1 -7.5,-7.5 V 110.31 a 7.51,7.51 0 0 1 7.5,-7.5 h 118.18 a 7.51,7.51 0 0 1 7.5,7.5 z"
     id="path335"
     inkscape:connector-curvature="0"
     style="fill:#263238" />
  <path
     class="cls-7"
     d="m 49,24.500004 -7.74,-1.12 -3.46,-7 a 2.5,2.5 0 0 0 -4.48,0 l -3.46,7 -7.77,1.12 a 2.5,2.5 0 0 0 -1.39,4.26 l 5.6,5.46 -1.3,7.74 a 2.5,2.5 0 0 0 3.63,2.64 l 6.92,-3.64 6.92,3.64 a 2.5,2.5 0 0 0 3.63,-2.64 l -1.32,-7.7 5.6,-5.46 a 2.5,2.5 0 0 0 -1.38,-4.3 z m -8.64,7.06 a 2.5,2.5 0 0 0 -0.72,2.21 l 0.69,4 -3.6,-1.89 a 2.5,2.5 0 0 0 -2.33,0 l -3.6,1.89 0.69,-4 a 2.5,2.5 0 0 0 -0.72,-2.21 l -2.91,-2.84 4,-0.58 a 2.5,2.5 0 0 0 1.88,-1.37 l 1.8,-3.65 1.8,3.65 a 2.5,2.5 0 0 0 1.88,1.37 l 4,0.58 z"
     id="path337"
     inkscape:connector-curvature="0"
     style="fill:#263238" />
  <path
     class="cls-7"
     d="m 101.28,24.500004 -7.74,-1.12 -3.46,-7 a 2.5,2.5 0 0 0 -4.48,0 l -3.46,7 -7.73,1.12 a 2.5,2.5 0 0 0 -1.41,4.3 l 5.6,5.46 -1.32,7.7 a 2.5,2.5 0 0 0 3.63,2.64 l 6.92,-3.64 6.92,3.64 a 2.5,2.5 0 0 0 3.63,-2.64 l -1.32,-7.7 5.6,-5.46 a 2.5,2.5 0 0 0 -1.38,-4.3 z m -8.64,7.06 a 2.5,2.5 0 0 0 -0.72,2.21 l 0.69,4 -3.61,-1.85 a 2.5,2.5 0 0 0 -2.33,0 l -3.6,1.89 0.69,-4 a 2.5,2.5 0 0 0 -0.76,-2.22 l -2.91,-2.84 4,-0.58 a 2.5,2.5 0 0 0 1.91,-1.37 l 1.8,-3.65 1.8,3.65 a 2.5,2.5 0 0 0 1.88,1.37 l 4,0.58 z"
     id="path339"
     inkscape:connector-curvature="0"
     style="fill:#263238" />
  <path
     class="cls-7"
     d="m 153.59,24.500004 -7.74,-1.12 -3.46,-7 a 2.5,2.5 0 0 0 -4.48,0 l -3.46,7 -7.73,1.12 a 2.5,2.5 0 0 0 -1.39,4.26 l 5.6,5.46 -1.32,7.7 a 2.5,2.5 0 0 0 3.63,2.64 l 6.92,-3.64 6.92,3.64 a 2.5,2.5 0 0 0 3.63,-2.64 l -1.32,-7.7 5.61,-5.42 a 2.5,2.5 0 0 0 -1.41,-4.3 z m -8.59,7.09 a 2.5,2.5 0 0 0 -0.72,2.21 l 0.69,4 -3.6,-1.89 a 2.5,2.5 0 0 0 -2.33,0 l -3.6,1.89 0.69,-4 a 2.5,2.5 0 0 0 -0.72,-2.21 l -2.91,-2.84 4,-0.58 a 2.5,2.5 0 0 0 1.88,-1.37 l 1.8,-3.65 1.82,3.65 a 2.5,2.5 0 0 0 1.88,1.37 l 4,0.58 z"
     id="path341"
     inkscape:connector-curvature="0"
     style="fill:#263238" />
  <path
     class="cls-7"
     d="m 205.91,24.500004 -7.74,-1.12 -3.46,-7 a 2.5,2.5 0 0 0 -4.48,0 l -3.46,7 -7.77,1.12 a 2.5,2.5 0 0 0 -1.39,4.26 l 5.6,5.46 -1.32,7.7 a 2.5,2.5 0 0 0 3.63,2.64 l 6.92,-3.64 6.92,3.64 a 2.5,2.5 0 0 0 3.64,-2.6 l -1.32,-7.7 5.6,-5.46 a 2.5,2.5 0 0 0 -1.37,-4.3 z m -8.64,7.06 a 2.5,2.5 0 0 0 -0.72,2.21 l 0.69,4 -3.6,-1.89 a 2.5,2.5 0 0 0 -2.33,0 l -3.6,1.89 0.69,-4 a 2.5,2.5 0 0 0 -0.72,-2.21 l -2.91,-2.84 4,-0.58 a 2.5,2.5 0 0 0 1.88,-1.37 l 1.8,-3.65 1.8,3.65 a 2.5,2.5 0 0 0 1.88,1.37 l 4,0.58 z"
     id="path343"
     inkscape:connector-curvature="0"
     style="fill:#263238" />
  <path
     class="cls-7"
     d="m 211,59.880004 a 12.51,12.51 0 0 0 12.5,-12.5 v -34.88 A 12.51,12.51 0 0 0 211,3.9999961e-6 H 17 A 12.51,12.51 0 0 0 4.48,12.500004 v 34.88 a 12.51,12.51 0 0 0 12.52,12.5 h 132.45 v 25.42 a 2.5,2.5 0 0 0 3.89,2.08 l 41,-27.49 z m -18.83,-4.58 -37.74,25.3 v -23.22 a 2.5,2.5 0 0 0 -2.5,-2.5 H 17 a 7.51,7.51 0 0 1 -7.5,-7.5 v -34.88 a 7.51,7.51 0 0 1 7.5,-7.5 h 194 a 7.51,7.51 0 0 1 7.5,7.5 v 34.88 a 7.51,7.51 0 0 1 -7.5,7.5 h -17.42 a 2.5,2.5 0 0 0 -1.39,0.43 z"
     id="path345"
     inkscape:connector-curvature="0"
     style="fill:#263238" />
  <path
     class="cls-2"
     d="M 11,136.75 H 7 v -4 a 1,1 0 0 0 -2,0 v 4 H 1 a 1,1 0 0 0 0,2 h 4 v 4 a 1,1 0 0 0 2,0 v -4 h 4 a 1,1 0 0 0 0,-2 z"
     id="path347"
     inkscape:connector-curvature="0"
     style="fill:#ffdd00" />
  <path
     class="cls-2"
     d="m 225,192.28 h -4 v -4 a 1,1 0 1 0 -2,0 v 4 h -4 a 1,1 0 0 0 0,2 h 4 v 4 a 1,1 0 0 0 2,0 v -4 h 4 a 1,1 0 0 0 0,-2 z"
     id="path349"
     inkscape:connector-curvature="0"
     style="fill:#ffdd00" />
  <path
     class="cls-5"
     d="m 129,74.500004 h -4 v -4 a 1,1 0 0 0 -2,0 v 4 h -4 a 1,1 0 0 0 0,2 h 4 v 4 a 1,1 0 0 0 2,0 v -4 h 4 a 1,1 0 0 0 0,-2 z"
     id="path351"
     inkscape:connector-curvature="0"
     style="fill:#40bdff" />
  <path
     class="cls-5"
     d="m 31.07,87.500004 a 6,6 0 1 1 6,-6 6,6 0 0 1 -6,6 z m 0,-10 a 4,4 0 1 0 4,4 4,4 0 0 0 -4,-4 z"
     id="path353"
     inkscape:connector-curvature="0"
     style="fill:#40bdff" />
  <path
     class="cls-2"
     d="m 16,228.96 a 6,6 0 1 1 6,-6 6,6 0 0 1 -6,6 z m 0,-10 a 4,4 0 1 0 4,4 4,4 0 0 0 -4,-4 z"
     id="path355"
     inkscape:connector-curvature="0"
     style="fill:#ffdd00" />
  <path
     class="cls-2"
     d="m 197.31,93.500004 a 6,6 0 1 1 6,-6 6,6 0 0 1 -6,6 z m 0,-10 a 4,4 0 1 0 4,4 4,4 0 0 0 -4,-4 z"
     id="path357"
     inkscape:connector-curvature="0"
     style="fill:#ffdd00" />
  <path
     class="cls-5"
     d="m 206.09,142.5 h -2.59 l 1.83,-1.83 a 1,1 0 0 0 -1.41,-1.41 l -1.83,1.83 v -2.59 a 1,1 0 0 0 -2,0 v 2.59 l -1.83,-1.83 a 1,1 0 0 0 -1.41,1.41 l 1.83,1.83 h -2.59 a 1,1 0 0 0 0,2 h 2.59 l -1.83,1.83 a 1,1 0 0 0 1.41,1.41 l 1.83,-1.83 v 2.59 a 1,1 0 0 0 2,0 v -2.59 l 1.83,1.83 a 1,1 0 0 0 1.41,-1.41 l -1.82,-1.83 h 2.59 a 1,1 0 0 0 0,-2 z"
     id="path359"
     inkscape:connector-curvature="0"
     style="fill:#40bdff" />
  <path
     class="cls-5"
     d="M 95.62,78.750004 H 93 l 1.83,-1.83 a 1,1 0 0 0 -1.38,-1.42 l -1.83,1.83 v -2.58 a 1,1 0 1 0 -2,0 v 2.59 l -1.82,-1.84 a 1,1 0 0 0 -1.41,1.41 l 1.83,1.83 h -2.6 a 1,1 0 0 0 0,2 h 2.59 l -1.83,1.83 a 1,1 0 0 0 1.41,1.41 l 1.83,-1.83 v 2.59 a 1,1 0 0 0 2,0 v -2.57 l 1.83,1.83 a 1,1 0 0 0 1.41,-1.41 l -1.86,-1.84 h 2.59 a 1,1 0 0 0 0,-2 z"
     id="path361"
     inkscape:connector-curvature="0"
     style="fill:#40bdff" />
  <path
     class="cls-5"
     d="m 30.07,173.91 h -2.58 l 1.83,-1.83 a 1,1 0 0 0 -1.41,-1.41 l -1.84,1.83 v -2.59 a 1,1 0 0 0 -2,0 v 2.59 l -1.83,-1.83 a 1,1 0 0 0 -1.41,1.41 l 1.83,1.83 h -2.59 a 1,1 0 0 0 0,2 h 2.59 l -1.83,1.83 a 1,1 0 0 0 1.41,1.41 l 1.83,-1.83 v 2.59 a 1,1 0 0 0 2,0 v -2.59 l 1.83,1.83 a 1,1 0 0 0 1.41,-1.41 l -1.83,-1.83 h 2.59 a 1,1 0 0 0 0,-2 z"
     id="path363"
     inkscape:connector-curvature="0"
     style="fill:#40bdff" />
  <path
     class="cls-5"
     d="m 206.09,223.5 h -2.59 l 1.83,-1.83 a 1,1 0 0 0 -1.41,-1.41 l -1.83,1.83 v -2.59 a 1,1 0 0 0 -2,0 v 2.59 l -1.83,-1.83 a 1,1 0 0 0 -1.41,1.41 l 1.83,1.83 h -2.59 a 1,1 0 0 0 0,2 h 2.59 l -1.83,1.83 a 1,1 0 0 0 1.41,1.41 l 1.83,-1.83 v 2.59 a 1,1 0 0 0 2,0 v -2.59 l 1.83,1.83 a 1,1 0 0 0 1.41,-1.41 l -1.82,-1.83 h 2.59 a 1,1 0 0 0 0,-2 z"
     id="path365"
     inkscape:connector-curvature="0"
     style="fill:#40bdff" />
</svg>
