<?xml version="1.0" encoding="UTF-8" standalone="no"?>
<svg
   xmlns:dc="http://purl.org/dc/elements/1.1/"
   xmlns:cc="http://creativecommons.org/ns#"
   xmlns:rdf="http://www.w3.org/1999/02/22-rdf-syntax-ns#"
   xmlns:svg="http://www.w3.org/2000/svg"
   xmlns="http://www.w3.org/2000/svg"
   xmlns:sodipodi="http://sodipodi.sourceforge.net/DTD/sodipodi-0.dtd"
   xmlns:inkscape="http://www.inkscape.org/namespaces/inkscape"
   data-name="Layer 1"
   id="Layer_1"
   viewBox="0 0 208 241"
   version="1.1"
   sodipodi:docname="iconfinder_checklist.svg"
   width="71"
   height="92"
   inkscape:version="0.92.4 (5da689c313, 2019-01-14)">
  <metadata
     id="metadata232">
    <rdf:RDF>
      <cc:Work
         rdf:about="">
        <dc:format>image/svg+xml</dc:format>
        <dc:type
           rdf:resource="http://purl.org/dc/dcmitype/StillImage" />
        <dc:title></dc:title>
      </cc:Work>
    </rdf:RDF>
  </metadata>
  <sodipodi:namedview
     pagecolor="#ffffff"
     bordercolor="#666666"
     borderopacity="1"
     objecttolerance="10"
     gridtolerance="10"
     guidetolerance="10"
     inkscape:pageopacity="0"
     inkscape:pageshadow="2"
     inkscape:window-width="1366"
     inkscape:window-height="706"
     id="namedview230"
     showgrid="false"
     fit-margin-top="0"
     fit-margin-left="0"
     fit-margin-right="0"
     fit-margin-bottom="0"
     inkscape:zoom="0.921875"
     inkscape:cx="100"
     inkscape:cy="120.5"
     inkscape:window-x="-8"
     inkscape:window-y="-8"
     inkscape:window-maximized="1"
     inkscape:current-layer="Layer_1" />
  <defs
     id="defs187">
    <style
       id="style185">.cls-1{fill:#40bdff;}.cls-2{fill:#2197f7;}.cls-3{fill:#effafe;}.cls-4{fill:#e4ebed;}.cls-5{fill:#263238;}.cls-6{fill:#fd0;}</style>
  </defs>
  <path
     class="cls-1"
     d="M 70.26,31.62 V 44.9 A 6.69,6.69 0 0 0 77,51.58 h 52.1 a 6.69,6.69 0 0 0 6.69,-6.68 V 31.62 A 6.7,6.7 0 0 0 129.1,24.93 10.67,10.67 0 0 1 118.42,14.25 V 11.18 A 6.69,6.69 0 0 0 111.68,4.5 H 94.32 a 6.69,6.69 0 0 0 -6.69,6.68 v 3.07 A 10.69,10.69 0 0 1 77,24.93 6.69,6.69 0 0 0 70.26,31.62 Z"
     id="path191"
     inkscape:connector-curvature="0"
     style="fill:#40bdff" />
  <path
     class="cls-2"
     d="M 129.05,24.93 A 10.67,10.67 0 0 1 118.37,14.25 V 11.18 A 6.69,6.69 0 0 0 111.68,4.5 h -8 a 6.69,6.69 0 0 1 6.69,6.68 v 3.07 a 10.67,10.67 0 0 0 10.68,10.68 6.7,6.7 0 0 1 6.69,6.69 V 44.9 a 6.69,6.69 0 0 1 -6.69,6.68 h 8 a 6.69,6.69 0 0 0 6.69,-6.68 V 31.62 a 6.7,6.7 0 0 0 -6.69,-6.69 z"
     id="path193"
     inkscape:connector-curvature="0"
     style="fill:#2197f7" />
  <path
     class="cls-3"
     d="m 35.31,236.5 h 134.38 a 8,8 0 0 0 8,-8 V 48.26 a 8,8 0 0 0 -8,-8 H 136.74 V 44.9 A 10.7,10.7 0 0 1 126.05,55.58 H 74 A 10.7,10.7 0 0 1 63.26,44.9 v -4.64 h -28 a 8,8 0 0 0 -8,8 V 228.5 a 8,8 0 0 0 8.05,8 z M 66.72,67.01 a 2,2 0 0 1 0,2.83 l -20,20 a 2,2 0 0 1 -2.83,0 l -10,-10 a 2.0011122,2.0011122 0 0 1 2.83,-2.83 L 45.31,85.6 63.9,67.01 a 2,2 0 0 1 2.82,0 z m -30,40 8.59,8.59 18.59,-18.59 a 2.0011122,2.0011122 0 0 1 2.83,2.83 l -20,20 a 2,2 0 0 1 -2.83,0 l -10,-10 a 2.0011122,2.0011122 0 0 1 2.83,-2.83 z m 0,30 8.59,8.59 18.59,-18.59 a 2.0011122,2.0011122 0 0 1 2.83,2.83 l -20,20 a 2,2 0 0 1 -2.83,0 l -10,-10 a 2.0011122,2.0011122 0 0 1 2.83,-2.83 z m 0,30 8.59,8.59 18.59,-18.59 a 2.0011122,2.0011122 0 0 1 2.83,2.83 l -20,20 a 2,2 0 0 1 -2.83,0 l -10,-10 a 2.0011122,2.0011122 0 0 1 2.83,-2.83 z m 0,29.92 8.59,8.57 18.59,-18.57 a 2.0011122,2.0011122 0 0 1 2.83,2.83 l -20,20 a 2,2 0 0 1 -2.83,0 l -10,-10 a 2.0011122,2.0011122 0 0 1 2.83,-2.83 z m 128,-116.51 H 80.26 a 2,2 0 0 1 0,-4 h 84.43 a 2,2 0 0 1 0,4 z m -84.43,26 h 84.43 a 2,2 0 0 1 0,4 H 80.26 a 2,2 0 0 1 0,-4 z m 0,30 h 84.43 a 2,2 0 0 1 0,4 H 80.26 a 2,2 0 1 1 0,-4 z m 0,30 h 84.43 a 2,2 0 0 1 0,4 H 80.26 a 2,2 0 1 1 0,-4 z m 0,29.92 h 84.43 a 2,2 0 0 1 0,4 H 80.26 a 2,2 0 1 1 0,-4 z"
     id="path195"
     inkscape:connector-curvature="0"
     style="fill:#effafe" />
  <path
     class="cls-4"
     d="m 169.69,40.26 h -5 a 8,8 0 0 1 8,8 V 228.5 a 8,8 0 0 1 -8,8 h 5 a 8,8 0 0 0 8,-8 V 48.26 a 8,8 0 0 0 -8,-8 z"
     id="path197"
     inkscape:connector-curvature="0"
     style="fill:#e4ebed" />
  <path
     class="cls-5"
     d="M 108.68,0 H 91.32 A 11.2,11.2 0 0 0 80.13,11.18 v 3.07 A 6.19,6.19 0 0 1 74,20.43 11.18,11.18 0 0 0 62.76,31.62 v 4.14 H 30.31 a 12.51,12.51 0 0 0 -12.5,12.5 V 228.5 a 12.51,12.51 0 0 0 12.5,12.5 h 139.38 a 12.51,12.51 0 0 0 12.5,-12.5 V 48.26 a 12.51,12.51 0 0 0 -12.5,-12.5 H 137.24 V 31.62 A 11.2,11.2 0 0 0 126.05,20.43 6.17,6.17 0 0 1 119.87,14.25 V 11.18 A 11.2,11.2 0 0 0 108.68,0 Z m 28.56,44.9 v -4.14 h 32.45 a 7.51,7.51 0 0 1 7.5,7.5 V 228.5 a 7.51,7.51 0 0 1 -7.5,7.5 H 30.31 a 7.51,7.51 0 0 1 -7.5,-7.5 V 48.26 a 7.51,7.51 0 0 1 7.5,-7.5 H 62.76 V 44.9 A 11.2,11.2 0 0 0 74,56.08 h 52.1 A 11.2,11.2 0 0 0 137.24,44.9 Z M 126.05,25.43 a 6.2,6.2 0 0 1 6.19,6.19 V 44.9 a 6.19,6.19 0 0 1 -6.19,6.18 H 74 A 6.19,6.19 0 0 1 67.81,44.9 V 31.62 A 6.19,6.19 0 0 1 74,25.43 11.19,11.19 0 0 0 85.18,14.25 V 11.18 A 6.19,6.19 0 0 1 91.37,5 h 17.36 a 6.19,6.19 0 0 1 6.19,6.18 v 3.07 a 11.17,11.17 0 0 0 11.18,11.18 z"
     id="path199"
     inkscape:connector-curvature="0"
     style="fill:#263238" />
  <path
     class="cls-5"
     d="M 63.54,66.65 45.31,84.88 37.08,76.65 a 2.503158,2.503158 0 0 0 -3.54,3.54 l 10,10 a 2.5,2.5 0 0 0 3.54,0 l 20,-20 a 2.503158,2.503158 0 0 0 -3.54,-3.54 z"
     id="path201"
     inkscape:connector-curvature="0"
     style="fill:#263238" />
  <path
     class="cls-5"
     d="m 77.76,78.42 a 2.5,2.5 0 0 0 2.5,2.5 h 84.43 a 2.5,2.5 0 0 0 0,-5 H 80.26 a 2.5,2.5 0 0 0 -2.5,2.5 z"
     id="path203"
     inkscape:connector-curvature="0"
     style="fill:#263238" />
  <path
     class="cls-5"
     d="m 63.54,96.65 -18.23,18.23 -8.23,-8.23 a 2.503158,2.503158 0 1 0 -3.54,3.54 l 10,10 a 2.5,2.5 0 0 0 3.54,0 l 20,-20 a 2.503158,2.503158 0 1 0 -3.54,-3.54 z"
     id="path205"
     inkscape:connector-curvature="0"
     style="fill:#263238" />
  <path
     class="cls-5"
     d="M 164.69,105.92 H 80.26 a 2.5,2.5 0 0 0 0,5 h 84.43 a 2.5,2.5 0 0 0 0,-5 z"
     id="path207"
     inkscape:connector-curvature="0"
     style="fill:#263238" />
  <path
     class="cls-5"
     d="m 63.54,126.65 -18.23,18.23 -8.23,-8.23 a 2.503158,2.503158 0 0 0 -3.54,3.54 l 10,10 a 2.5,2.5 0 0 0 3.54,0 l 20,-20 a 2.503158,2.503158 0 0 0 -3.54,-3.54 z"
     id="path209"
     inkscape:connector-curvature="0"
     style="fill:#263238" />
  <path
     class="cls-5"
     d="M 164.69,135.92 H 80.26 a 2.5,2.5 0 1 0 0,5 h 84.43 a 2.5,2.5 0 0 0 0,-5 z"
     id="path211"
     inkscape:connector-curvature="0"
     style="fill:#263238" />
  <path
     class="cls-5"
     d="m 63.54,156.65 -18.23,18.23 -8.23,-8.23 a 2.503158,2.503158 0 0 0 -3.54,3.54 l 10,10 a 2.5,2.5 0 0 0 3.54,0 l 20,-20 a 2.503158,2.503158 0 0 0 -3.54,-3.54 z"
     id="path213"
     inkscape:connector-curvature="0"
     style="fill:#263238" />
  <path
     class="cls-5"
     d="M 164.69,165.92 H 80.26 a 2.5,2.5 0 1 0 0,5 h 84.43 a 2.5,2.5 0 0 0 0,-5 z"
     id="path215"
     inkscape:connector-curvature="0"
     style="fill:#263238" />
  <path
     class="cls-5"
     d="m 63.54,186.57 -18.23,18.23 -8.23,-8.23 a 2.503158,2.503158 0 0 0 -3.54,3.54 l 10,10 a 2.5,2.5 0 0 0 3.54,0 l 20,-20 a 2.503158,2.503158 0 1 0 -3.54,-3.54 z"
     id="path217"
     inkscape:connector-curvature="0"
     style="fill:#263238" />
  <path
     class="cls-5"
     d="M 164.69,195.84 H 80.26 a 2.5,2.5 0 1 0 0,5 h 84.43 a 2.5,2.5 0 0 0 0,-5 z"
     id="path219"
     inkscape:connector-curvature="0"
     style="fill:#263238" />
  <path
     class="cls-1"
     d="m 207,193.34 h -4 v -4 a 1,1 0 0 0 -2,0 v 4 h -4 a 1,1 0 0 0 0,2 h 4 v 4 a 1,1 0 0 0 2,0 v -4 h 4 a 1,1 0 0 0 0,-2 z"
     id="path221"
     inkscape:connector-curvature="0"
     style="fill:#40bdff" />
  <path
     class="cls-1"
     d="m 154.75,27.18 a 6,6 0 1 1 6,-6 6,6 0 0 1 -6,6 z m 0,-10 a 4,4 0 1 0 4,4 4,4 0 0 0 -4,-4 z"
     id="path223"
     inkscape:connector-curvature="0"
     style="fill:#40bdff" />
  <path
     class="cls-6"
     d="m 202,81.92 a 6,6 0 1 1 6,-6 6,6 0 0 1 -6,6 z m 0,-10 a 4,4 0 1 0 4,4 4,4 0 0 0 -4,-4 z"
     id="path225"
     inkscape:connector-curvature="0"
     style="fill:#ffdd00" />
  <path
     class="cls-1"
     d="M 11,146.85 H 8.41 l 1.83,-1.83 A 1,1 0 0 0 8.83,143.61 L 7,145.44 v -2.59 a 1,1 0 0 0 -2,0 v 2.59 l -1.83,-1.83 a 1,1 0 0 0 -1.41,1.41 l 1.83,1.83 H 1 a 1,1 0 0 0 0,2 h 2.59 l -1.83,1.83 a 1,1 0 0 0 1.41,1.41 L 5,150.27 v 2.59 a 1,1 0 0 0 2,0 v -2.59 l 1.83,1.83 a 1,1 0 0 0 1.41,-1.41 L 8.41,148.86 H 11 a 1,1 0 0 0 0,-2 z"
     id="path227"
     inkscape:connector-curvature="0"
     style="fill:#40bdff" />
</svg>
