<?xml version="1.0" encoding="utf-8"?>
<!-- Generator: Adobe Illustrator 23.0.0, SVG Export Plug-In . SVG Version: 6.00 Build 0)  -->
<svg version="1.1" xmlns="http://www.w3.org/2000/svg" xmlns:xlink="http://www.w3.org/1999/xlink" x="0px" y="0px"
	 viewBox="0 0 500 500" enable-background="new 0 0 500 500" xml:space="preserve">
<g id="BACKGROUND">
	<circle fill="#7240C5" cx="468.23" cy="406.56" r="3.5"/>
	<circle opacity="0.47" fill="#9FBFFF" cx="449.99" cy="449.86" r="3.5"/>
	<circle fill="#9FBFFF" cx="35.02" cy="86.48" r="2.72"/>
	<path fill="#7240C5" d="M244.59,51.74c0,2.68-2.17,4.85-4.85,4.85s-4.85-2.17-4.85-4.85s2.17-4.85,4.85-4.85
		S244.59,49.06,244.59,51.74z"/>
	<path fill="#7240C5" d="M39.59,123.42c0,2.53-2.05,4.57-4.57,4.57c-2.53,0-4.57-2.05-4.57-4.57c0-2.53,2.05-4.57,4.57-4.57
		C37.54,118.85,39.59,120.9,39.59,123.42z"/>
	<circle fill="#1B1B25" cx="69.95" cy="80.59" r="1.72"/>
	<path fill="#9FBFFF" d="M437.19,72.56c-1.25-0.83-1.59-2.52-0.76-3.77c0.83-1.25,2.52-1.59,3.77-0.76
		c1.25,0.83,1.59,2.52,0.76,3.77C440.13,73.05,438.44,73.39,437.19,72.56z"/>
	<path fill="#7240C5" d="M403.35,48.36c-2.1-1.4-2.67-4.24-1.28-6.34c1.4-2.1,4.24-2.67,6.34-1.28c2.1,1.4,2.67,4.24,1.28,6.34
		C408.29,49.19,405.46,49.76,403.35,48.36z"/>
	<path fill="#1B1B25" d="M429.97,127.22c-0.79-0.53-1-1.59-0.48-2.38c0.52-0.79,1.59-1,2.38-0.48c0.79,0.52,1,1.59,0.48,2.38
		C431.82,127.53,430.76,127.75,429.97,127.22z"/>
	<g>
		<g>
			<g opacity="0.18">
				<g>
					<g>
						<g>
							<path fill="#9FBFFF" d="M438.22,410.8c19.45-23.32,32.91-55.62,32.51-86.36c-0.41-31.89-11.89-61.43-6.41-94.14
								c3.13-18.7,10.4-36.71,11.49-55.64C480.92,85.2,338.85,7.57,281.18,91.24c-3.95,5.74-7.24,12.08-12.45,16.7
								c-6.5,5.76-15.77,8.22-24.27,6.46c-13.7-2.85-25.2-13.59-38.49-18.26c-12.03-4.22-24.64-6.57-37.38-7.1
								c-25.28-1.05-50.83,5.06-73.16,16.88c-44.61,23.62-73.58,70.18-66.84,121.34c3.99,30.27,20.73,57.37,39.71,81.29
								c36.3,45.75,82.16,83.61,132.88,112.57c40.98,23.4,86.79,41.39,133.95,39.85C376.83,459.61,413.6,440.32,438.22,410.8z"/>
						</g>
					</g>
				</g>
			</g>
			<g opacity="0.47">
				<g>
					<g>
						<g>
							<path fill="#9FBFFF" d="M468.99,321.12c5.12-27.82,1.26-60.19-13.11-84.96c-14.92-25.7-37.74-44.42-48.27-73.47
								c-6.02-16.61-8.35-34.55-16.13-50.42C354.71,37.33,203.9,39.31,195.36,133.6c-0.59,6.46-0.35,13.12-2.46,19.25
								c-2.64,7.64-9.04,13.89-16.75,16.34c-12.43,3.95-26.67,0.49-39.59,2.78c-11.7,2.08-23,5.93-33.58,11.33
								c-21,10.71-38.94,27.35-51.65,47.17c-25.4,39.58-27.61,90.61,1.25,129.05c17.08,22.75,43.07,37.08,69.41,47.81
								c50.39,20.53,104.93,30.28,159.34,30.58c43.96,0.25,89.37-6.1,126.95-28.93C441.49,388.82,462.51,356.34,468.99,321.12z"/>
						</g>
					</g>
				</g>
			</g>
			<g opacity="0.22">
				<path fill="#9FBFFF" d="M35.86,434.08c-1.78,16.45,12.38,31.48,31.62,33.56s49.65-8.13,51.43-24.58
					c1.78-16.45-28.27-20.6-44.26-30.37C52.35,399.06,37.64,417.63,35.86,434.08z"/>
			</g>
			<g opacity="0.47">
				<g>
					<g>
						<g>
							<path fill="#9FBFFF" d="M419.04,305.62c3.36-18.25,0.83-39.49-8.6-55.73c-9.78-16.86-24.76-29.14-31.66-48.19
								c-3.95-10.9-5.48-22.67-10.58-33.07c-24.12-49.16-123.05-47.86-128.65,13.99c-0.38,4.24-0.23,8.6-1.62,12.63
								c-1.73,5.01-5.93,9.11-10.98,10.72c-8.15,2.59-17.49,0.32-25.97,1.83c-7.67,1.36-15.09,3.89-22.03,7.43
								c-13.78,7.03-25.54,17.94-33.88,30.94c-16.66,25.96-18.11,59.44,0.82,84.66c11.21,14.92,28.25,24.32,45.53,31.36
								c33.05,13.47,68.83,19.86,104.52,20.06c28.84,0.16,58.63-4,83.27-18.98C401,350.02,414.79,328.72,419.04,305.62z"/>
						</g>
					</g>
				</g>
			</g>
			<g opacity="0.31">
				<path fill="#9FBFFF" d="M451.06,153.66c-0.92,3.35-4.38,5.32-7.73,4.41c-3.35-0.92-5.32-4.38-4.41-7.73
					c0.92-3.35,4.38-5.32,7.73-4.41C450,146.85,451.97,150.31,451.06,153.66z"/>
			</g>
			<g opacity="0.31">
				
					<ellipse transform="matrix(0.4385 -0.8987 0.8987 0.4385 64.9111 197.6712)" fill="#9FBFFF" cx="190.65" cy="46.89" rx="22.25" ry="22.25"/>
			</g>
			<g opacity="0.31">
				<path fill="#9FBFFF" d="M484.2,242.04c-0.66,3.76-4.24,6.27-8,5.62c-3.76-0.66-6.27-4.24-5.62-8c0.66-3.76,4.24-6.27,8-5.62
					C482.34,234.7,484.86,238.29,484.2,242.04z"/>
			</g>
			<g opacity="0.31">
				<path fill="#9FBFFF" d="M469.99,48.08c-0.66,3.76-4.24,6.27-8,5.62c-3.76-0.66-6.27-4.24-5.62-8c0.66-3.76,4.24-6.27,8-5.62
					C468.14,40.74,470.65,44.32,469.99,48.08z"/>
			</g>
			<g opacity="0.31">
				<path fill="#9FBFFF" d="M64.15,183.84c-0.39,2.24-2.52,3.73-4.76,3.34c-2.24-0.39-3.73-2.52-3.34-4.76
					c0.39-2.24,2.52-3.73,4.76-3.34C63.04,179.48,64.54,181.61,64.15,183.84z"/>
			</g>
		</g>
	</g>
</g>
<g id="OBJECTS">
	<g opacity="0.61">
		<g>
			<g>
				<path fill="#FFFFFF" d="M345.51,289.54l13.5-3.53c2.78-0.73,5.63,0.95,6.36,3.73l2.73,10.44c3.85,0.04,7.68,0.57,11.41,1.58
					l5.46-9.31c1.45-2.48,4.65-3.32,7.13-1.86l12.04,7.05c2.48,1.45,3.32,4.65,1.86,7.13l-5.45,9.31c2.7,2.76,5.04,5.85,6.96,9.18
					l10.44-2.73c2.78-0.73,5.64,0.95,6.36,3.73l3.53,13.5c0.73,2.78-0.95,5.63-3.73,6.36l-10.44,2.73
					c-0.04,3.85-0.57,7.68-1.58,11.41l9.31,5.46c2.48,1.45,3.32,4.65,1.86,7.13l-7.05,12.04c-1.45,2.48-4.65,3.32-7.13,1.86
					l-9.31-5.45c-2.76,2.7-5.85,5.04-9.18,6.96l2.73,10.44c0.73,2.78-0.95,5.64-3.73,6.36l-13.5,3.53
					c-2.78,0.73-5.63-0.95-6.36-3.73l-2.73-10.44c-3.85-0.04-7.68-0.57-11.41-1.58l-5.45,9.31c-1.45,2.48-4.65,3.32-7.13,1.86
					l-12.04-7.05c-2.48-1.45-3.32-4.65-1.86-7.13l5.46-9.31c-2.7-2.76-5.04-5.84-6.96-9.18l-10.43,2.72
					c-2.78,0.73-5.64-0.95-6.36-3.73l-3.53-13.5c-0.73-2.78,0.95-5.63,3.73-6.36l10.43-2.72c0.05-3.85,0.58-7.68,1.58-11.41
					l-9.31-5.46c-2.48-1.45-3.32-4.65-1.86-7.13l7.05-12.04c1.46-2.48,4.65-3.31,7.13-1.86l9.31,5.45c2.76-2.7,5.85-5.04,9.18-6.96
					l-2.73-10.44C341.06,293.12,342.73,290.27,345.51,289.54z M380.63,304.55l-0.89-0.26c-4.09-1.19-8.31-1.78-12.55-1.74
					l-0.92,0.01l-3.19-12.22c-0.4-1.52-1.95-2.43-3.47-2.03l-13.5,3.53c-1.52,0.4-2.43,1.95-2.03,3.47l3.19,12.22l-0.81,0.44
					c-3.71,2.04-7.11,4.61-10.1,7.65l-0.65,0.66l-10.9-6.38c-1.35-0.79-3.1-0.34-3.89,1.02l-7.05,12.04
					c-0.79,1.35-0.34,3.1,1.02,3.89l10.9,6.39l-0.26,0.89c-1.19,4.09-1.78,8.31-1.74,12.55l0.01,0.92l-12.21,3.19
					c-1.52,0.4-2.43,1.95-2.03,3.47l3.53,13.5c0.4,1.52,1.95,2.43,3.47,2.03l12.21-3.19l0.44,0.81c2.04,3.72,4.61,7.11,7.65,10.09
					l0.66,0.65l-6.39,10.9c-0.79,1.35-0.34,3.1,1.02,3.89l12.04,7.05c1.35,0.79,3.09,0.34,3.89-1.02l6.38-10.9l0.89,0.26
					c4.09,1.19,8.31,1.78,12.55,1.74l0.92-0.01l3.19,12.22c0.4,1.52,1.95,2.43,3.47,2.03l13.5-3.53c1.52-0.4,2.43-1.95,2.03-3.47
					l-3.19-12.22l0.81-0.44c3.71-2.04,7.11-4.61,10.09-7.65l0.65-0.66l10.9,6.38c1.35,0.79,3.1,0.34,3.89-1.02l7.05-12.04
					c0.79-1.35,0.34-3.1-1.02-3.89l-10.9-6.39l0.26-0.89c1.19-4.09,1.78-8.31,1.74-12.55l-0.01-0.92l12.22-3.19
					c1.52-0.4,2.43-1.95,2.03-3.47l-3.53-13.5c-0.4-1.52-1.95-2.43-3.47-2.03l-12.22,3.19l-0.45-0.81
					c-2.04-3.71-4.61-7.11-7.65-10.09l-0.66-0.65l6.38-10.9c0.79-1.35,0.34-3.1-1.02-3.89l-12.04-7.05
					c-1.35-0.79-3.1-0.34-3.89,1.02L380.63,304.55z M359.21,314.4c17.59-4.59,35.64,5.98,40.23,23.57
					c4.59,17.59-5.98,35.64-23.57,40.23c-17.59,4.59-35.64-5.98-40.24-23.57C331.05,337.04,341.62,318.99,359.21,314.4z
					 M375.28,375.91c16.33-4.26,26.14-21.01,21.88-37.34c-4.26-16.33-21.01-26.14-37.34-21.88c-16.33,4.26-26.14,21.01-21.88,37.34
					C342.2,370.36,358.95,380.17,375.28,375.91z"/>
			</g>
		</g>
		<g>
			<g>
				<path fill="#FFFFFF" d="M84.53,187.68l13.5-3.53c2.78-0.73,5.63,0.95,6.36,3.73l2.72,10.44c3.85,0.04,7.68,0.57,11.41,1.58
					l5.46-9.31c1.45-2.48,4.65-3.32,7.13-1.86l12.04,7.05c2.48,1.45,3.32,4.65,1.86,7.13l-5.45,9.31c2.7,2.76,5.04,5.85,6.96,9.18
					l10.44-2.73c2.78-0.73,5.64,0.95,6.36,3.73l3.53,13.5c0.73,2.78-0.95,5.63-3.73,6.36l-10.44,2.73
					c-0.04,3.85-0.57,7.68-1.58,11.41l9.31,5.46c2.48,1.45,3.32,4.65,1.86,7.13l-7.05,12.04c-1.45,2.48-4.65,3.32-7.13,1.86
					l-9.31-5.45c-2.76,2.7-5.85,5.04-9.18,6.96l2.73,10.44c0.73,2.78-0.95,5.64-3.73,6.36l-13.5,3.53
					c-2.78,0.73-5.63-0.95-6.36-3.73l-2.73-10.44c-3.85-0.04-7.68-0.57-11.41-1.58l-5.45,9.31c-1.45,2.48-4.65,3.32-7.13,1.86
					l-12.04-7.05c-2.48-1.45-3.32-4.65-1.86-7.13l5.46-9.31c-2.7-2.76-5.04-5.84-6.96-9.18l-10.43,2.72
					c-2.78,0.73-5.64-0.95-6.36-3.73l-3.53-13.5c-0.73-2.78,0.95-5.63,3.73-6.36l10.43-2.72c0.05-3.85,0.58-7.68,1.58-11.41
					l-9.31-5.46c-2.48-1.45-3.32-4.65-1.86-7.13l7.05-12.04c1.46-2.48,4.65-3.31,7.13-1.86l9.31,5.45c2.76-2.7,5.85-5.04,9.18-6.96
					l-2.73-10.44C80.08,191.26,81.75,188.4,84.53,187.68z M119.65,202.68l-0.89-0.26c-4.09-1.19-8.31-1.78-12.55-1.74l-0.92,0.01
					l-3.19-12.22c-0.4-1.52-1.95-2.43-3.47-2.03l-13.5,3.53c-1.52,0.4-2.43,1.95-2.03,3.47l3.19,12.22l-0.81,0.44
					c-3.71,2.04-7.11,4.61-10.1,7.65l-0.65,0.66l-10.9-6.38c-1.35-0.79-3.1-0.34-3.89,1.02l-7.05,12.04
					c-0.79,1.35-0.34,3.1,1.02,3.89l10.9,6.39l-0.26,0.89c-1.19,4.09-1.78,8.31-1.74,12.55l0.01,0.92l-12.21,3.19
					c-1.52,0.4-2.43,1.95-2.03,3.47l3.53,13.5c0.4,1.52,1.95,2.43,3.47,2.03l12.21-3.19l0.44,0.81c2.04,3.72,4.61,7.11,7.65,10.09
					l0.66,0.65l-6.39,10.9c-0.79,1.35-0.34,3.1,1.02,3.89l12.04,7.05c1.35,0.79,3.09,0.34,3.89-1.02l6.38-10.9l0.89,0.26
					c4.09,1.19,8.31,1.78,12.55,1.74l0.92-0.01l3.19,12.22c0.4,1.52,1.95,2.43,3.47,2.03l13.5-3.53c1.52-0.4,2.43-1.95,2.03-3.47
					l-3.19-12.22l0.81-0.44c3.71-2.04,7.11-4.61,10.09-7.65l0.65-0.66l10.9,6.38c1.35,0.79,3.1,0.34,3.89-1.02l7.05-12.04
					c0.79-1.35,0.34-3.1-1.02-3.89l-10.9-6.39l0.26-0.89c1.19-4.09,1.78-8.31,1.74-12.55l-0.01-0.92l12.22-3.19
					c1.52-0.4,2.43-1.95,2.03-3.47l-3.53-13.5c-0.4-1.52-1.95-2.43-3.47-2.03l-12.22,3.19l-0.44-0.81
					c-2.04-3.71-4.61-7.11-7.65-10.09l-0.66-0.65l6.38-10.9c0.79-1.35,0.34-3.1-1.02-3.89l-12.04-7.05
					c-1.35-0.79-3.1-0.34-3.89,1.02L119.65,202.68z M98.23,212.53c17.59-4.59,35.64,5.98,40.23,23.57
					c4.59,17.59-5.98,35.64-23.57,40.23c-17.59,4.59-35.64-5.98-40.24-23.57S80.64,217.12,98.23,212.53z M114.29,274.04
					c16.33-4.26,26.14-21.01,21.88-37.34c-4.26-16.33-21.01-26.14-37.34-21.88c-16.33,4.26-26.14,21.01-21.88,37.34
					C81.22,268.49,97.97,278.31,114.29,274.04z"/>
			</g>
		</g>
		<g>
			<path fill="#FFFFFF" d="M355.9,251.77l6.45,1.59c0.01,2.51,0.4,4.97,1.12,7.31l-5.69,3.44c-1.08,0.65-1.43,2.06-0.77,3.14
				l4.11,6.78c0.65,1.08,2.06,1.43,3.14,0.77l5.69-3.44c1.74,1.72,3.74,3.2,5.95,4.38l-1.59,6.45c-0.3,1.23,0.45,2.47,1.68,2.77
				l7.7,1.89c1.23,0.3,2.47-0.45,2.77-1.68l1.59-6.45c2.51-0.01,4.97-0.4,7.31-1.12l3.44,5.69c0.65,1.08,2.06,1.43,3.14,0.77
				l6.78-4.1c1.08-0.65,1.43-2.06,0.77-3.14l-3.44-5.69c1.72-1.74,3.2-3.74,4.38-5.96l6.45,1.59c1.23,0.3,2.47-0.45,2.77-1.68
				l1.89-7.7c0.3-1.23-0.45-2.47-1.68-2.77l-6.45-1.59c-0.01-2.51-0.4-4.97-1.12-7.31l5.69-3.44c1.08-0.65,1.43-2.06,0.77-3.14
				l-4.11-6.78c-0.65-1.08-2.06-1.43-3.14-0.77l-5.69,3.44c-1.74-1.72-3.74-3.2-5.95-4.38l1.59-6.45c0.3-1.23-0.45-2.47-1.68-2.77
				l-7.7-1.89c-1.23-0.3-2.47,0.45-2.77,1.68l-1.59,6.45c-2.51,0.01-4.97,0.4-7.31,1.12l-3.44-5.69c-0.65-1.08-2.06-1.43-3.14-0.77
				l-6.78,4.1c-1.08,0.65-1.43,2.06-0.77,3.14l3.44,5.69c-1.72,1.74-3.2,3.74-4.38,5.96l-6.45-1.59c-1.23-0.3-2.47,0.45-2.77,1.68
				l-1.89,7.7C353.92,250.23,354.67,251.47,355.9,251.77z M392.18,235.66c9.68,2.38,15.61,12.16,13.23,21.84
				c-2.38,9.68-12.16,15.61-21.84,13.23c-9.68-2.38-15.61-12.16-13.23-21.84C372.72,239.2,382.5,233.28,392.18,235.66z"/>
		</g>
		<g opacity="0.36">
			<path fill="#6F3FCF" d="M434.43,319.61c-0.18,0-0.36-0.02-0.54-0.07l-5.92-1.46c-1.21-0.3-1.95-1.53-1.66-2.73l1.13-4.59
				c-1.48-0.82-2.85-1.83-4.08-3l-4.05,2.45c-1.07,0.64-2.46,0.3-3.1-0.76l-3.16-5.22c-0.31-0.52-0.41-1.12-0.26-1.71
				c0.14-0.59,0.51-1.08,1.03-1.39l4.05-2.45c-0.47-1.63-0.72-3.31-0.77-5l-4.59-1.13c-0.59-0.14-1.08-0.51-1.39-1.02
				c-0.31-0.52-0.41-1.12-0.26-1.71l1.46-5.92c0.14-0.59,0.51-1.08,1.02-1.39c0.52-0.31,1.12-0.4,1.71-0.26l4.59,1.13
				c0.82-1.48,1.83-2.85,3-4.08l-2.45-4.05c-0.31-0.52-0.41-1.12-0.26-1.71c0.14-0.59,0.51-1.08,1.03-1.39l5.22-3.16
				c1.06-0.65,2.46-0.3,3.1,0.76l2.45,4.05c1.63-0.47,3.31-0.72,5-0.77l1.13-4.59c0.14-0.59,0.51-1.08,1.02-1.39
				c0.52-0.31,1.13-0.41,1.71-0.26l5.92,1.46c1.21,0.3,1.95,1.52,1.66,2.73l-1.13,4.59c1.48,0.82,2.85,1.83,4.08,3l4.05-2.45
				c0.52-0.31,1.13-0.41,1.71-0.26c0.59,0.14,1.08,0.51,1.39,1.02l3.16,5.22c0.31,0.52,0.41,1.12,0.26,1.71
				c-0.14,0.59-0.51,1.08-1.02,1.39l-4.05,2.45c0.47,1.63,0.72,3.31,0.77,5l4.59,1.13c0.59,0.14,1.08,0.51,1.39,1.02
				c0.31,0.52,0.41,1.13,0.26,1.71l-1.45,5.92c-0.14,0.59-0.51,1.08-1.02,1.39c-0.52,0.31-1.13,0.41-1.71,0.26l-4.59-1.13
				c-0.82,1.48-1.83,2.85-3,4.08l2.45,4.05c0.31,0.52,0.41,1.12,0.26,1.71c-0.14,0.59-0.51,1.08-1.02,1.39l-5.22,3.16
				c-1.07,0.64-2.46,0.3-3.1-0.76l-2.45-4.05c-1.63,0.47-3.31,0.72-5,0.77l-1.13,4.59C436.37,318.92,435.44,319.61,434.43,319.61z
				 M423.51,306.5l0.28,0.27c1.32,1.31,2.83,2.42,4.47,3.28l0.34,0.18l-1.31,5.35c-0.17,0.67,0.25,1.36,0.92,1.53l5.92,1.46
				c0.33,0.08,0.67,0.03,0.95-0.15c0.29-0.17,0.49-0.45,0.57-0.78l1.31-5.35l0.39,0c1.85-0.01,3.7-0.29,5.48-0.84l0.37-0.11
				l2.85,4.71c0.36,0.59,1.14,0.79,1.73,0.43l5.22-3.16c0.29-0.17,0.49-0.45,0.57-0.78c0.08-0.33,0.03-0.67-0.15-0.95l-2.85-4.71
				l0.27-0.28c1.31-1.32,2.41-2.83,3.28-4.47l0.18-0.34l5.35,1.31c0.33,0.08,0.66,0.03,0.95-0.15c0.29-0.17,0.49-0.45,0.57-0.78
				l1.45-5.92c0.08-0.33,0.03-0.67-0.15-0.95c-0.17-0.29-0.45-0.49-0.78-0.57l-5.35-1.31l0-0.39c-0.01-1.86-0.29-3.7-0.84-5.48
				l-0.12-0.37l4.71-2.85c0.29-0.17,0.49-0.45,0.57-0.78c0.08-0.33,0.03-0.67-0.15-0.95l-3.16-5.22c-0.17-0.29-0.45-0.49-0.78-0.57
				c-0.33-0.08-0.67-0.03-0.95,0.15l-4.71,2.85l-0.28-0.27c-1.32-1.31-2.82-2.41-4.46-3.28l-0.34-0.18l1.31-5.35
				c0.16-0.67-0.25-1.36-0.92-1.53l-5.92-1.46c-0.32-0.08-0.67-0.03-0.95,0.15c-0.29,0.17-0.49,0.45-0.57,0.78l-1.31,5.35l-0.39,0
				c-1.85,0.01-3.7,0.29-5.48,0.84l-0.37,0.12l-2.85-4.71c-0.36-0.59-1.14-0.79-1.73-0.43l-5.22,3.16
				c-0.29,0.17-0.49,0.45-0.57,0.78c-0.08,0.33-0.03,0.67,0.15,0.95l2.85,4.71l-0.27,0.28c-1.31,1.32-2.41,2.83-3.28,4.47
				l-0.18,0.34l-5.35-1.31c-0.33-0.08-0.67-0.03-0.95,0.15c-0.29,0.17-0.49,0.45-0.57,0.78l-1.46,5.92
				c-0.17,0.68,0.25,1.36,0.92,1.53l5.35,1.31l0,0.39c0.01,1.86,0.29,3.7,0.84,5.48l0.12,0.37l-4.71,2.85
				c-0.29,0.17-0.49,0.45-0.57,0.78c-0.08,0.33-0.03,0.67,0.15,0.95l3.16,5.22c0.36,0.59,1.14,0.78,1.73,0.43L423.51,306.5z
				 M437.23,307.55c-1.13,0-2.29-0.13-3.44-0.42c-3.73-0.92-6.89-3.23-8.88-6.52c-1.99-3.29-2.58-7.16-1.66-10.89
				c0.92-3.73,3.23-6.89,6.52-8.88c3.29-1.99,7.16-2.58,10.89-1.66l0,0c3.73,0.92,6.89,3.23,8.88,6.52
				c1.99,3.29,2.58,7.16,1.67,10.89C449.6,303.15,443.7,307.55,437.23,307.55z M437.21,279.75c-2.42,0-4.79,0.66-6.91,1.94
				c-3.06,1.85-5.22,4.79-6.07,8.26c-0.85,3.48-0.3,7.08,1.55,10.14c1.85,3.06,4.79,5.22,8.26,6.07c3.48,0.85,7.08,0.3,10.14-1.55
				c3.06-1.85,5.22-4.79,6.07-8.26c0.85-3.48,0.3-7.08-1.55-10.14c-1.85-3.06-4.79-5.22-8.26-6.07l0,0
				C439.36,279.88,438.28,279.75,437.21,279.75z"/>
		</g>
	</g>
	<g>
		<path fill="#292930" d="M309.43,370.68l-108.01,46.56c-9.01,3.89-19.47-0.27-23.36-9.29L78.8,177.68
			c-3.89-9.01,0.27-19.47,9.29-23.36l108.01-46.56c9.01-3.89,19.47,0.27,23.36,9.29l99.26,230.26
			C322.6,356.33,318.44,366.79,309.43,370.68z"/>
		<path fill="#FFFFFF" d="M296,362.39l-91.99,39.65c-9.01,3.89-19.47-0.27-23.36-9.29L89.94,182.29
			c-3.89-9.01,0.27-19.47,9.29-23.36l91.99-39.65c9.01-3.89,19.47,0.27,23.36,9.29l90.72,210.47
			C309.17,348.05,305.01,358.5,296,362.39z"/>
		<path fill="#9FBFFF" d="M293.42,356.4l-91.99,39.65c-9.01,3.89-19.3,0.13-22.97-8.38l-85.7-198.82
			c-3.67-8.51,0.66-18.57,9.67-22.45l91.99-39.65c9.01-3.89,19.3-0.13,22.97,8.38l85.7,198.82
			C306.77,342.46,302.43,352.52,293.42,356.4z"/>
		<path fill="#292930" d="M179.36,139.38l-54.61,23.54c-3.49,1.51-7.54-0.11-9.05-3.6l-3.11-6.81l67.24-29.4l3.13,7.22
			C184.46,133.83,182.85,137.88,179.36,139.38z"/>
		<path fill="#FFFFFF" d="M130.4,155.59c-1.38,0-2.7-0.81-3.28-2.16c-0.78-1.81,0.06-3.91,1.86-4.69c1.81-0.78,3.91,0.06,4.69,1.87
			l0,0c0.78,1.81-0.06,3.91-1.87,4.69C131.35,155.5,130.87,155.59,130.4,155.59z M130.39,149.45c-0.34,0-0.68,0.07-1.01,0.21
			c-1.3,0.56-1.9,2.08-1.34,3.38c0.56,1.3,2.08,1.9,3.38,1.34c1.3-0.56,1.9-2.08,1.34-3.38l0,0
			C132.34,150.04,131.39,149.45,130.39,149.45z"/>
		<path fill="#FFFFFF" d="M141.13,150.02c-1.08,0-2.12-0.63-2.57-1.69c-0.29-0.68-0.3-1.44-0.03-2.14c0.28-0.7,0.81-1.24,1.49-1.54
			l26.15-11.27c0.68-0.29,1.44-0.3,2.14-0.03c0.7,0.28,1.24,0.81,1.54,1.49c0.61,1.42-0.05,3.07-1.46,3.68l-26.15,11.27
			C141.88,149.95,141.5,150.02,141.13,150.02z M167.27,134.15c-0.24,0-0.48,0.05-0.71,0.15l-26.15,11.27
			c-0.91,0.39-1.33,1.45-0.94,2.36c0.39,0.91,1.45,1.33,2.36,0.94l26.15-11.27c0.91-0.39,1.33-1.45,0.94-2.36
			c-0.19-0.44-0.54-0.78-0.99-0.96C167.72,134.2,167.49,134.15,167.27,134.15z"/>
		<polygon opacity="0.18" fill="#FFFFFF" points="219.85,140.83 120.64,253.51 132.56,281.18 229,162.06 		"/>
		<polygon opacity="0.1" fill="#FFFFFF" points="235.85,178.44 144.57,309.54 156.5,337.2 245.39,200.57 		"/>
	</g>
	<g>
		<g>
			
				<ellipse transform="matrix(0.2968 -0.955 0.955 0.2968 85.3591 328.5386)" fill="#5629CA" cx="265.74" cy="106.31" rx="45.56" ry="45.03"/>
			
				<ellipse transform="matrix(0.2969 -0.9549 0.9549 0.2969 88.8838 322.4182)" fill="#6F3FCF" cx="263.38" cy="100.85" rx="45.56" ry="45.03"/>
			
				<ellipse transform="matrix(0.2968 -0.9549 0.9549 0.2968 88.906 322.4357)" opacity="0.93" fill="#FFFFFF" cx="263.38" cy="100.85" rx="35.02" ry="34.61"/>
			<path fill="#9FBFFF" d="M264.13,98.45L264.13,98.45c-0.89-0.28-1.38-1.22-1.1-2.1l6.06-19.5c0.28-0.89,1.22-1.38,2.1-1.1l0,0
				c0.89,0.28,1.38,1.22,1.1,2.1l-6.06,19.5C265.95,98.23,265.01,98.72,264.13,98.45z"/>
			<path fill="#9FBFFF" d="M263.3,101.43L263.3,101.43c0.28-0.89,1.22-1.38,2.1-1.1l15.03,4.67c0.89,0.28,1.38,1.22,1.1,2.1l0,0
				c-0.28,0.89-1.22,1.38-2.1,1.1l-15.03-4.67C263.52,103.26,263.03,102.32,263.3,101.43z"/>
			<path fill="#1B1B25" d="M268.19,102.35c-0.84,2.69-3.67,4.2-6.32,3.37c-2.66-0.83-4.13-3.67-3.3-6.36s3.67-4.2,6.32-3.37
				C267.55,96.81,269.02,99.66,268.19,102.35z"/>
		</g>
		<g>
			<path fill="#101011" d="M325.62,335.85l-84.78-29.4c-7.82-2.71-11.97-11.25-9.25-19.08l70.54-203.43
				c2.71-7.82,11.25-11.97,19.08-9.25l84.78,29.4c7.82,2.71,11.97,11.25,9.25,19.08L344.69,326.6
				C341.98,334.42,333.44,338.57,325.62,335.85z"/>
			<path fill="#282830" d="M324.21,331.88l-79.8-27.67c-7.36-2.55-11.19-10.82-8.54-18.45l68.88-198.64
				c2.65-7.64,10.77-11.76,18.13-9.21l79.8,27.67c7.36,2.55,11.19,10.82,8.54,18.45l-68.88,198.64
				C339.69,330.31,331.57,334.44,324.21,331.88z"/>
			
				<rect x="229.82" y="153.23" transform="matrix(0.3276 -0.9448 0.9448 0.3276 22.6924 443.9333)" fill="#FFFFFF" width="186.85" height="105.59"/>
			<g>
				<g>
					<path opacity="0.89" fill="#FFFFFF" d="M360.32,100.64c-0.2,0-0.4-0.03-0.59-0.1c-0.45-0.16-0.82-0.48-1.03-0.92
						c-0.21-0.43-0.24-0.92-0.08-1.38c0.16-0.45,0.48-0.82,0.92-1.03c0.43-0.21,0.92-0.24,1.38-0.08c0.46,0.16,0.82,0.48,1.03,0.92
						c0.21,0.43,0.24,0.92,0.08,1.38s-0.48,0.82-0.92,1.03C360.86,100.58,360.59,100.64,360.32,100.64z M360.32,98.03
						c-0.12,0-0.24,0.03-0.35,0.08c-0.19,0.09-0.34,0.26-0.41,0.46c-0.07,0.2-0.06,0.42,0.04,0.61c0.09,0.19,0.26,0.34,0.46,0.41
						c0.2,0.07,0.42,0.06,0.61-0.04c0.19-0.09,0.34-0.26,0.41-0.46v0c0.07-0.2,0.06-0.42-0.04-0.61c-0.09-0.19-0.26-0.34-0.46-0.41
						C360.5,98.05,360.41,98.03,360.32,98.03z"/>
					<path opacity="0.89" fill="#FFFFFF" d="M367.62,109.64c-0.15,0-0.3-0.02-0.45-0.08l0,0l-18.89-6.55
						c-0.71-0.25-1.09-1.03-0.84-1.74c0.12-0.35,0.37-0.62,0.7-0.78c0.33-0.16,0.7-0.18,1.04-0.06l18.89,6.55
						c0.35,0.12,0.62,0.37,0.78,0.7c0.16,0.33,0.18,0.7,0.06,1.05C368.72,109.28,368.19,109.64,367.62,109.64z M367.5,108.62
						c0.19,0.07,0.4-0.04,0.47-0.23c0.03-0.09,0.03-0.19-0.02-0.28c-0.04-0.09-0.12-0.16-0.21-0.19l-18.89-6.55
						c-0.09-0.03-0.19-0.03-0.28,0.02c-0.09,0.04-0.16,0.12-0.19,0.21c-0.07,0.19,0.04,0.4,0.23,0.47L367.5,108.62L367.5,108.62z"/>
				</g>
			</g>
			<g opacity="0.41">
				<g>
					<g opacity="0.81">
						
							<rect x="237.13" y="158.18" transform="matrix(0.3276 -0.9448 0.9448 0.3276 24.1186 444.6711)" fill="#9FBFFF" width="174.69" height="94.43"/>
					</g>
				</g>
			</g>
			<path fill="#FFFFFF" d="M297.93,315.08c-0.45,0-0.9-0.08-1.34-0.23l-19.95-6.92c-2.13-0.74-3.26-3.07-2.52-5.2l0.12-0.35
				c0.36-1.03,1.1-1.86,2.08-2.34c0.98-0.48,2.09-0.54,3.12-0.18l19.95,6.92c2.13,0.74,3.26,3.07,2.52,5.2l-0.12,0.35
				c-0.36,1.03-1.1,1.86-2.08,2.34C299.15,314.94,298.54,315.08,297.93,315.08z M275.06,303.06c-0.56,1.61,0.3,3.37,1.91,3.93
				l19.95,6.92c1.61,0.56,3.37-0.3,3.93-1.91l0.12-0.35c0.56-1.61-0.3-3.37-1.91-3.93l-19.95-6.92c-0.78-0.27-1.62-0.22-2.36,0.14
				c-0.74,0.36-1.3,0.99-1.57,1.77L275.06,303.06z"/>
			<polygon opacity="0.18" fill="#FFFFFF" points="298.3,116.82 383.84,192.44 373.73,221.6 290.83,136.87 			"/>
			<polygon opacity="0.18" fill="#FFFFFF" points="285.44,153.63 370.98,229.25 360.87,258.41 282.84,160.62 			"/>
		</g>
	</g>
	<g>
		<g>
			<path fill="#5629CA" d="M148.06,113.73l-25.98,2.44c-5.52,0.52-10.46-3.59-10.98-9.13l-2.23-23.7
				c-0.52-5.54,3.57-10.5,9.09-11.02l25.98-2.44c5.52-0.52,10.46,3.59,10.98,9.13l2.23,23.7
				C157.67,108.25,153.58,113.21,148.06,113.73z"/>
			<path fill="#6F3FCF" d="M148.5,110.12l-23.97,2.25c-5.09,0.48-9.65-3.3-10.13-8.39l-2.05-21.79c-0.48-5.09,3.3-9.65,8.39-10.13
				l23.97-2.25c5.09-0.48,9.65,3.3,10.13,8.39l2.05,21.79C157.37,105.08,153.59,109.64,148.5,110.12z"/>
			<path fill="#FFFFFF" d="M126.62,103.02c-0.09,0-0.15,0-0.18-0.01l-0.27-0.11l-0.04-0.29c-0.41-3.54,1.16-7.01,4.03-9.05
				c-1.82-1.19-3.03-3.12-3.29-5.31c-0.46-4.03,2.43-7.68,6.46-8.14c1.95-0.23,3.87,0.32,5.41,1.54c1.54,1.22,2.51,2.97,2.73,4.92
				c0.25,2.19-0.48,4.34-1.99,5.92c3.26,1.34,5.58,4.35,5.99,7.89l0.03,0.29l-0.23,0.18C144.9,101.12,128.55,103.02,126.62,103.02z
				 M134.21,81.04c-0.25,0-0.49,0.01-0.74,0.04c-3.48,0.4-5.98,3.56-5.58,7.04c0.25,2.13,1.54,3.98,3.47,4.95l0.82,0.41l-0.79,0.47
				c-2.85,1.68-4.5,4.81-4.29,8.08c2.48-0.19,14.89-1.62,17.34-2c-0.54-3.23-2.87-5.9-6.02-6.89l-0.88-0.27l0.71-0.59
				c1.66-1.38,2.5-3.48,2.25-5.61c-0.19-1.69-1.03-3.19-2.36-4.25C137.01,81.52,135.63,81.04,134.21,81.04z"/>
		</g>
		<g>
			<g>
				<path fill="#FFFFFF" d="M314.67,378.53l-57.23-18.03c-1.32-0.42-2.73,0.32-3.15,1.64l-1.94,6.15l-0.95,3.01l-9.33,29.6
					l-0.81,2.57l-0.12,0.39c-0.42,1.32,0.32,2.73,1.64,3.15l57.23,18.03c1.32,0.42,2.73-0.32,3.15-1.64l0.16-0.49l0.73-2.31
					l10.1-32.04l0.94-3l1.22-3.88C316.73,380.35,316,378.94,314.67,378.53z"/>
				<g>
					<path fill="#6F3FCF" d="M272.61,388.14l5.24,5.27c0.31,0.31,0.76,0.45,1.19,0.36l33.03-7.62l2.49-0.57
						c0.18-0.04,0.36-0.04,0.54-0.02l1.22-3.88c0.42-1.32-0.32-2.73-1.64-3.15l-57.23-18.03c-1.32-0.42-2.73,0.32-3.15,1.64
						l-1.94,6.15l1.27,1.25L272.61,388.14z"/>
					<polygon fill="#6F3FCF" points="251.41,371.29 242.08,400.9 270.03,389.56 					"/>
					<polygon fill="#6F3FCF" points="304.05,420.6 314.15,388.56 287.56,394.69 					"/>
					<path fill="#6F3FCF" d="M301.8,422.3l-17.15-26.94l-5,1.15c-0.72,0.15-1.45,0.11-2.12-0.1c-0.62-0.2-1.2-0.54-1.68-1.02
						l-3.69-3.71c-0.09,0.06-0.18,0.12-0.28,0.16l-29.19,11.85c-0.32,0.13-0.65,0.13-0.95,0.04c-0.17-0.05-0.33-0.14-0.47-0.26
						l-0.12,0.39c-0.42,1.32,0.32,2.73,1.64,3.15l57.23,18.03c1.32,0.42,2.73-0.32,3.15-1.64l0.16-0.49
						c-0.25,0.06-0.52,0.06-0.76-0.02C302.26,422.8,301.98,422.6,301.8,422.3z"/>
				</g>
			</g>
		</g>
		<g>
			<path fill="#5629CA" d="M277.78,219.85l-22.11,9.53c-4.7,2.03-10.2-0.16-12.22-4.86l-8.66-20.1c-2.03-4.7,0.16-10.2,4.86-12.22
				l22.11-9.53c4.7-2.03,10.2,0.16,12.22,4.86l8.66,20.1C284.66,212.32,282.48,217.82,277.78,219.85z"/>
			<path fill="#6F3FCF" d="M276.82,217.33l-22.11,9.53c-4.7,2.03-10.2-0.16-12.22-4.86l-8.66-20.1c-2.03-4.7,0.16-10.2,4.86-12.22
				l22.11-9.53c4.7-2.03,10.2,0.16,12.22,4.86l8.66,20.1C283.7,209.8,281.51,215.3,276.82,217.33z"/>
			<path fill="#FFFFFF" d="M257.76,211.8c-3.21,0-6.28-1.88-7.63-5.01c-1.81-4.2,0.13-9.09,4.34-10.9c2.03-0.88,4.29-0.91,6.35-0.09
				c2.06,0.82,3.68,2.39,4.55,4.43c0.88,2.03,0.91,4.29,0.09,6.35c-0.82,2.06-2.39,3.68-4.42,4.55
				C259.97,211.58,258.85,211.8,257.76,211.8z M257.75,196.2c-0.98,0-1.96,0.2-2.89,0.6c-3.7,1.59-5.41,5.89-3.81,9.59
				c1.59,3.7,5.9,5.4,9.59,3.81c1.79-0.77,3.17-2.19,3.89-4.01c0.72-1.81,0.69-3.79-0.08-5.58l0,0c-0.77-1.79-2.19-3.17-4-3.89
				C259.57,196.37,258.66,196.2,257.75,196.2z"/>
		</g>
		<g>
			<path fill="#5629CA" d="M406.81,218.22l-34.34-3.02c-7.3-0.64-12.74-7.14-12.1-14.44l2.74-31.22c0.64-7.3,7.14-12.74,14.44-12.1
				l34.34,3.02c7.3,0.64,12.74,7.14,12.1,14.44l-2.74,31.22C420.61,213.42,414.11,218.86,406.81,218.22z"/>
			<path fill="#6F3FCF" d="M410.93,214.72l-34.34-3.02c-7.3-0.64-12.74-7.14-12.1-14.44l2.74-31.22c0.64-7.3,7.14-12.74,14.44-12.1
				l34.34,3.02c7.3,0.64,12.74,7.14,12.1,14.44l-2.74,31.22C424.72,209.91,418.23,215.36,410.93,214.72z"/>
			<g>
				<g>
					<path fill="#FFFFFF" d="M395.55,200.49c-0.21,0-0.43-0.01-0.64-0.03l0,0c-3.24-0.31-5.82-2.88-6.14-6.11l-0.06-0.6l13.56,1.28
						l-0.17,0.58C401.23,198.52,398.54,200.49,395.55,200.49z M389.86,194.86c0.51,2.47,2.59,4.36,5.15,4.61l0,0
						c2.56,0.24,4.96-1.23,5.92-3.56L389.86,194.86z"/>
					<path fill="#FFFFFF" d="M405.5,196.3c-0.21,0-0.41-0.01-0.62-0.03l-18.97-1.79c-3.55-0.33-6.16-3.49-5.83-7.04
						c0.28-2.98,2.56-5.35,5.49-5.78l0.58-6.16c0.57-6.07,5.96-10.56,12.05-9.98c6.07,0.57,10.55,5.98,9.98,12.05l-0.58,6.16
						c2.8,0.97,4.59,3.72,4.31,6.7c-0.16,1.72-0.98,3.27-2.31,4.37C408.43,195.79,406.99,196.3,405.5,196.3z M397.16,166.48
						c-5.13,0-9.52,3.92-10.01,9.12l-0.66,6.99l-0.42,0.03c-2.64,0.21-4.74,2.28-4.99,4.92c-0.28,3,1.93,5.67,4.92,5.95l18.97,1.79
						c1.46,0.14,2.87-0.3,3.99-1.23c1.12-0.93,1.82-2.24,1.95-3.69c0.25-2.64-1.43-5.07-3.98-5.77l-0.4-0.11l0.66-6.99
						c0.52-5.53-3.55-10.44-9.08-10.97C397.79,166.49,397.48,166.48,397.16,166.48z"/>
				</g>
			</g>
		</g>
		<g>
			<path fill="#5629CA" d="M206.4,318.86L83.72,372.72c-5.59,2.46-12.12-0.09-14.58-5.68L47.84,318.5
				c-2.46-5.59,0.09-12.12,5.68-14.58l122.67-53.86c5.59-2.46,12.12,0.09,14.58,5.68l21.31,48.53
				C214.54,309.88,211.99,316.4,206.4,318.86z"/>
			<path fill="#6F3FCF" d="M206.6,310.73L81.84,365.5c-3.85,1.69-8.34-0.06-10.03-3.91l-21.12-48.11
				c-1.69-3.85,0.06-8.34,3.91-10.03l124.75-54.77c3.85-1.69,8.34,0.06,10.03,3.91l21.12,48.11
				C212.2,304.55,210.45,309.04,206.6,310.73z"/>
			
				<rect x="73.92" y="302.3" transform="matrix(0.9156 -0.402 0.402 0.9156 -121.675 64.9947)" opacity="0.44" fill="#FFFFFF" width="40.22" height="40.22"/>
			<path fill="#FFFFFF" d="M120.48,299.32c-0.38,0-0.75-0.22-0.92-0.6c-0.22-0.51,0.01-1.1,0.51-1.32l54.94-24.12
				c0.51-0.22,1.1,0.01,1.32,0.51c0.22,0.51-0.01,1.1-0.51,1.32l-54.94,24.12C120.75,299.29,120.62,299.32,120.48,299.32z"/>
			<path fill="#FFFFFF" d="M132.73,327.21c-0.38,0-0.75-0.22-0.92-0.6c-0.22-0.51,0.01-1.1,0.51-1.32l54.94-24.12
				c0.51-0.22,1.1,0.01,1.32,0.51c0.22,0.51-0.01,1.1-0.51,1.32l-54.94,24.12C133,327.18,132.86,327.21,132.73,327.21z"/>
			<path fill="#FFFFFF" d="M126.6,313.27c-0.38,0-0.75-0.22-0.92-0.6c-0.22-0.51,0.01-1.1,0.51-1.32l29-12.73
				c0.51-0.22,1.1,0.01,1.32,0.51c0.22,0.51-0.01,1.1-0.51,1.32l-29,12.73C126.87,313.24,126.74,313.27,126.6,313.27z"/>
			<path fill="#FFFFFF" d="M162.3,297.59c-0.38,0-0.75-0.22-0.92-0.6c-0.22-0.51,0.01-1.1,0.51-1.32l19.24-8.45
				c0.51-0.22,1.1,0.01,1.32,0.51c0.22,0.51-0.01,1.1-0.51,1.32l-19.24,8.45C162.57,297.57,162.44,297.59,162.3,297.59z"/>
		</g>
		<g>
			<path fill="#5629CA" d="M417.15,336.84c0.43,10.41-11.06,33.09-16.79,42.4c-1.14,1.85-5.11,3.94-8.18,0.04
				c-6.76-8.58-21.91-30.06-22.34-40.46c-0.55-13.06,9.6-24.1,22.67-24.64C405.57,313.62,416.6,323.77,417.15,336.84z"/>
			<path fill="#6F3FCF" d="M419.69,335.57c0.43,10.41-13.61,34.36-19.33,43.67c-1.14,1.85-3.78,1.96-5.07,0.21
				c-6.48-8.8-22.47-31.49-22.91-41.9c-0.55-13.06,9.6-24.1,22.67-24.64C408.11,312.36,419.15,322.51,419.69,335.57z"/>
			<path fill="#FFFFFF" d="M410.05,335.57c0.32,7.75-5.7,14.29-13.44,14.62c-7.75,0.32-14.29-5.7-14.62-13.44
				c-0.32-7.75,5.7-14.29,13.44-14.62C403.18,321.8,409.73,327.82,410.05,335.57z"/>
		</g>
	</g>
</g>
<g id="DESIGNED_BY_FREEPIK">
</g>
</svg>
