<?xml version="1.0" encoding="UTF-8" standalone="no"?>
<svg
   xmlns:dc="http://purl.org/dc/elements/1.1/"
   xmlns:cc="http://creativecommons.org/ns#"
   xmlns:rdf="http://www.w3.org/1999/02/22-rdf-syntax-ns#"
   xmlns:svg="http://www.w3.org/2000/svg"
   xmlns="http://www.w3.org/2000/svg"
   xmlns:sodipodi="http://sodipodi.sourceforge.net/DTD/sodipodi-0.dtd"
   xmlns:inkscape="http://www.inkscape.org/namespaces/inkscape"
   data-name="Layer 21"
   height="26"
   id="Layer_21"
   viewBox="0 0 11.982033 11.505455"
   width="44"
   version="1.1"
   sodipodi:docname="vk.svg"
   style="fill:#ffffff"
   inkscape:version="0.92.4 (5da689c313, 2019-01-14)">
  <metadata
     id="metadata3857">
    <rdf:RDF>
      <cc:Work
         rdf:about="">
        <dc:format>image/svg+xml</dc:format>
        <dc:type
           rdf:resource="http://purl.org/dc/dcmitype/StillImage" />
        <dc:title></dc:title>
      </cc:Work>
    </rdf:RDF>
  </metadata>
  <defs
     id="defs3855" />
  <sodipodi:namedview
     pagecolor="#ffffff"
     bordercolor="#666666"
     borderopacity="1"
     objecttolerance="10"
     gridtolerance="10"
     guidetolerance="10"
     inkscape:pageopacity="0"
     inkscape:pageshadow="2"
     inkscape:window-width="640"
     inkscape:window-height="480"
     id="namedview3853"
     showgrid="false"
     fit-margin-top="0"
     fit-margin-left="0"
     fit-margin-right="0"
     fit-margin-bottom="0"
     inkscape:zoom="8.6363636"
     inkscape:cx="15.26886"
     inkscape:cy="6.5"
     inkscape:window-x="0"
     inkscape:window-y="0"
     inkscape:window-maximized="0"
     inkscape:current-layer="Layer_21" />
  <path
     d="m 15.334,0.5054552 h -3.29048 a 0.74281,0.74281 0 0 0 -0.65452,0.39156 c 0,0 -1.31237,2.41693 -1.7339198,3.231 -1.13406,2.18994 -1.86844,1.50244 -1.86844,0.48607 v -3.50446 a 1.10417,1.10417 0 0 0 -1.10417,-1.10417 h -2.474 a 1.9818,1.9818 0 0 0 -1.751,0.8125 c 0,0 1.25626,-0.20312 1.25626,1.48958 0,0.41974 0.02162,1.62723 0.04132,2.64 a 0.72943,0.72943 0 0 1 -1.273,0.50431 21.54029,21.54029 0 0 1 -2.49820001,-4.54359 0.69314,0.69314 0 0 0 -0.63041,-0.4028 c -0.71359999,0 -2.14157999,0 -2.98960999,0 a 0.508,0.508 0 0 0 -0.47969,0.68481 c 0.90779,2.49006 4.81825999,10.3151898 9.28167,10.3151898 h 1.87865 a 0.74219,0.74219 0 0 0 0.74218,-0.74219 V 9.6288752 a 0.7293,0.7293 0 0 1 1.22868,-0.5315 L 11.26393,11.210075 a 1.08911,1.08911 0 0 0 0.74571,0.29538 h 2.95281 c 1.42415,0 1.42415,-0.98824 0.64768,-1.7529398 -0.54645,-0.53817 -2.51832,-2.61663 -2.51832,-2.61663 a 1.01862,1.01862 0 0 1 -0.07837,-1.32343 c 0.63737,-0.83876 1.67988,-2.21175 2.122,-2.79993 0.60433,-0.80394 1.69808,-2.50707 0.19856,-2.50707 z"
     id="path3850"
     inkscape:connector-curvature="0" />
</svg>
